<svg width="439" height="427" viewBox="0 0 439 427" fill="none" xmlns="http://www.w3.org/2000/svg">
<path d="M169 238C210.924 238 251.167 254.301 281.255 283.392C283.558 312.262 282.799 333.389 281.96 356.718C281.567 367.654 281.157 379.073 281.036 392H169L7.67407 392C9.53696 351.897 26.2876 313.817 54.8023 285.302C85.0894 255.015 126.168 238 169 238Z" stroke="#227AC7" stroke-width="15"/>
<circle cx="168.5" cy="106.5" r="99" stroke="#227AC7" stroke-width="15"/>
<line x1="282.5" y1="235" x2="282.5" y2="427" stroke="#267CC8" stroke-width="15"/>
<path d="M409.168 302.679L425.218 327.5H341.5V268.5H425.459L409.108 294.628L406.577 298.673L409.168 302.679Z" fill="white" stroke="#227AC7" stroke-width="15"/>
<rect x="282.5" y="242.5" width="90" height="59" fill="white" stroke="#227AC7" stroke-width="15"/>
</svg>
