<svg width="911" height="571" viewBox="0 0 911 571" fill="none" xmlns="http://www.w3.org/2000/svg">
<g clip-path="url(#clip0)">
<path d="M190.699 549.47V545.8C192.839 546.4 194.849 546.6 196.499 547.49C198.296 548.521 200.3 549.138 202.365 549.297C204.431 549.456 206.506 549.153 208.439 548.41C211.909 547.14 214.839 547.01 217.019 550.75C217.459 551.5 219.219 551.69 220.379 551.75C222.031 551.751 223.681 551.648 225.319 551.44L227.489 552.85C231.279 555.04 234.969 557.43 238.909 559.32C240.724 560.121 242.736 560.365 244.689 560.02C247.227 559.604 249.657 558.689 251.839 557.33C253.029 556.55 253.449 554.46 253.979 552.88C254.259 552.08 253.679 550.76 254.129 550.29C254.579 549.82 256.589 549.18 256.789 549.45C257.739 550.77 258.209 552.45 259.069 553.85C260.179 555.65 259.359 556.57 258.069 557.75C257.749 558.04 258.409 560.12 259.149 560.75C259.889 561.38 261.459 561.4 262.639 561.75C264.409 562.22 265.959 562.53 266.849 564.8C267.339 566.04 269.849 566.72 271.639 567.17C274.452 567.916 277.415 567.882 280.209 567.07L276.859 561.4C280.169 560.19 282.009 560.59 282.789 563.4C283.509 566.04 285.539 566.96 287.969 567.57C289.544 568.152 291.064 568.875 292.509 569.73C291.359 570.21 291.079 570.44 290.829 570.41C284.456 569.69 278.022 569.69 271.649 570.41C270.674 570.411 269.723 570.107 268.929 569.54C265.099 567.08 261.299 567.23 256.929 568.29C253.489 569.12 249.579 568.18 245.929 567.79C244.809 567.67 243.759 566.79 242.679 566.25C239.459 564.67 236.239 563.55 232.959 567.06L232.199 565.97C232.317 564.876 232.582 563.802 232.989 562.78C234.189 560.66 234.319 558.69 232.379 557.09C230.439 555.49 226.199 555.65 224.989 556.92C223.989 557.92 224.489 561.53 225.689 562.47C226.489 563.05 227.168 563.78 227.689 564.62C224.989 564.03 221.959 565.2 220.209 561.37C219.039 558.8 215.589 558.84 213.289 559.93C208.289 562.3 204.569 559 200.539 557.47C198.719 556.79 199.419 554.68 202.009 553.12C201.609 550.61 200.699 549.81 197.769 550.49C195.609 550.98 193.079 549.82 190.719 549.39L190.699 549.47Z" fill="#237AC7"/>
<path d="M153.75 52.1096C151.03 54.6296 148.34 57.1796 145.57 59.6396C144.127 60.9715 142.425 61.9926 140.57 62.6396C142.52 56.6396 147.57 53.1996 151.47 48.8196C150.85 46.5096 149.96 45.4696 147.21 46.3596C144.66 47.1896 141.8 47.0796 139.07 47.3596L138.4 46.3596L143.17 44.3596L139.08 40.7296C140.178 39.5223 141.529 38.572 143.036 37.9462C144.544 37.3205 146.17 37.0349 147.8 37.1096C149.03 37.2125 150.263 36.96 151.354 36.3821C152.444 35.8041 153.345 34.9251 153.95 33.8496C155.24 31.5996 157.06 31.1896 159.05 30.2396C162.43 28.6096 165.5 26.3296 168.97 24.1496L170.45 26.8796C172.67 26.6196 174.59 26.2996 176.52 26.2096C178.501 26.1917 180.414 25.4825 181.928 24.2044C183.441 22.9263 184.461 21.1596 184.81 19.2096C184.967 18.7855 185.227 18.4067 185.565 18.1066C185.903 17.8066 186.311 17.5947 186.75 17.4896C189.75 17.2996 192.75 17.4096 195.67 17.4096C196.3 20.5396 195.52 21.7296 193.26 21.4096C191.65 21.1696 188.93 20.4096 188.61 20.9596C187.76 22.4396 187.92 24.5196 187.72 26.3596C187.33 29.8696 189.9 30.4496 192.72 30.8896L191.55 34.9796L203.48 36.3296C203.62 38.2196 203.78 40.4896 203.96 42.9396H200.4C200.33 35.8696 195.73 37.9396 191.64 38.9396C191.62 38.449 191.543 37.9625 191.41 37.4896C191.05 36.6596 190.58 35.8696 190.16 35.0696C189.43 35.5696 188.72 36.1296 187.94 36.5596C186.432 37.4996 184.835 38.2868 183.17 38.9096C182.66 39.0596 181.75 37.9096 181.24 37.4696C183.11 35.8996 184.87 34.8796 185.91 33.3596C186.181 32.7771 186.298 32.1351 186.251 31.4945C186.204 30.854 185.993 30.2361 185.64 29.6996C184.72 28.8796 182.64 28.3196 181.64 28.8196C177.073 31.0891 172.642 33.6234 168.37 36.4096C166.92 37.3496 166.21 39.4096 165.02 40.7696C163.57 42.4796 162.02 45.3296 160.41 45.4396C156.3 45.7296 155.2 48.0496 154.52 51.2796C154.23 51.6396 153.99 51.8696 153.75 52.1096Z" fill="#237BC7"/>
<path d="M326.191 554.49V560.11C329.191 559.38 332.111 558.83 334.871 557.91C335.371 557.75 335.751 555.91 335.521 555.09C334.141 549.87 335.281 548.47 341.071 548.97C340.481 551.97 339.891 554.89 339.231 558.22C344.551 557.16 349.491 564.41 354.981 558.4C354.461 554.95 348.851 559.17 349.101 554.53L355.101 552.88C352.891 548.42 352.911 548.45 357.251 545.88C358.469 545.055 359.641 544.163 360.761 543.21C362.051 544.74 362.991 546.34 364.351 547.37C365.921 548.56 367.981 549.08 369.621 550.2C372.178 551.943 374.541 553.955 376.671 556.2C367.671 556.75 360.321 561.34 352.221 563.56C349.906 564.193 347.551 564.668 345.171 564.98C344.099 565.117 343.011 564.903 342.071 564.37C340.371 563.27 339.571 563.64 338.221 565.15C336.651 566.91 334.341 567.79 331.951 565.97C331.452 565.658 330.868 565.511 330.281 565.55C327.911 565.63 325.531 565.75 323.161 565.96C322.441 566.02 321.291 566.24 321.161 566.67C320.051 569.74 317.161 569.06 315.001 569.6C314.554 569.584 314.118 569.456 313.733 569.227C313.348 568.998 313.028 568.676 312.801 568.29C311.991 566.14 314.261 560.66 316.321 559.85C318.381 559.04 319.651 558.39 319.041 555.56C318.571 553.36 320.851 552.76 322.771 553.1C323.954 553.449 325.1 553.915 326.191 554.49Z" fill="#2179C6"/>
<path d="M379.951 550.69C379.081 545.69 378.071 545.11 373.791 546.99C371.981 547.79 371.341 546.92 370.281 545.66C369.401 544.66 367.781 544.21 366.711 543.26C369.631 540.77 371.291 540.52 373.911 541.77C377.741 543.59 382.111 544.29 386.281 545.36C387.571 545.69 388.991 545.53 390.281 545.86C393.111 546.59 394.741 545.61 395.421 542.41L390.841 541.8C391.261 540.35 391.641 539.01 392.131 537.29L387.681 536.29C388.031 534.05 389.991 533.2 391.281 534.22C394.161 536.5 395.151 533.93 397.681 532.48L393.881 531.06C392.867 529.625 391.958 528.117 391.161 526.55C390.621 525.27 390.081 523.63 390.471 522.45C390.731 521.63 392.571 521.33 394.131 520.59V527.24L399.531 531.1C399.961 530.36 400.281 529.1 401.071 528.62C402.317 528.04 403.635 527.629 404.991 527.4C404.713 528.288 404.561 529.21 404.541 530.14C404.681 531.36 405.111 533.53 405.541 533.57C409.101 533.85 412.691 533.72 416.241 533.72C416.241 532.72 416.331 532.38 416.241 532.3C412.871 529.58 412.561 525.42 411.161 521.76C410.699 520.517 409.999 519.376 409.101 518.4C407.361 516.55 407.601 515.34 410.211 514.4C413.361 518.59 417.741 519.94 422.911 518.93C423.501 522.49 421.201 522.63 419.021 523.15C417.911 523.41 416.131 524.27 416.101 524.93C416.183 526.357 416.691 527.726 417.561 528.86C419.181 531.26 421.631 531.66 424.381 531.33C425.615 531.318 426.847 531.449 428.051 531.72L428.291 533.04C426.101 533.81 423.891 534.48 421.761 535.38C420.547 535.799 419.455 536.51 418.581 537.45C417.181 539.26 415.851 540.18 413.981 538.24C412.111 536.3 410.331 537.16 407.981 537.65C403.581 538.56 401.981 541.42 400.241 544.88C399.822 545.656 399.252 546.34 398.565 546.893C397.879 547.446 397.088 547.857 396.241 548.1C390.891 549.24 385.391 549.87 379.951 550.69Z" fill="#257CC8"/>
<path d="M398.38 35.4003C397.46 35.4903 396.24 36.0003 395.65 35.5903C391.52 32.7403 386.9 33.9503 382.44 33.7203C378.7 33.5303 375.44 33.9603 373.25 37.7203C372.74 38.6103 370.61 38.5503 369.25 38.9203C369.25 37.5103 368.85 35.8403 369.46 34.7403C370.46 32.9603 372.1 31.5603 373.93 29.4803C372.959 28.1651 371.861 26.9492 370.65 25.8503C368.17 23.9403 365.46 22.3303 362.84 20.6003C362.66 20.4803 362.26 20.4203 362.26 20.3203C362.15 17.2103 360.37 15.2103 356.99 14.2203C361.34 11.4903 362.09 12.0703 363.05 16.1603C363.36 17.4703 365.51 18.3503 366.82 19.4303C367.069 18.2877 367.229 17.1276 367.3 15.9603C367.141 14.4801 366.877 13.013 366.51 11.5703L381.58 16.0303C379.58 21.3803 379.95 21.8703 385.2 21.5703C387.402 21.3955 389.59 22.0361 391.35 23.3703C393.17 24.6403 395.94 24.6903 398.35 24.9803C400.368 25.1053 402.392 25.1053 404.41 24.9803L404.47 26.2903L399.53 27.6703C399.91 29.6703 400.22 31.4003 400.53 33.0903C397.93 32.1403 398.41 33.9803 398.38 35.4003Z" fill="#2179C6"/>
<path d="M471.42 89.6903C466.79 87.4303 471.93 87.0903 472.29 85.4903C470.41 84.1603 469.2 81.1503 465.85 83.4903C465.38 83.8303 463.62 83.0303 462.94 82.3003C460.94 80.1203 459.94 77.0503 456.81 75.6403C455.69 75.1403 455.54 72.6403 454.81 71.0603C454.22 69.8603 453.41 68.7803 452.7 67.6403C451.97 68.4903 451.152 69.2612 450.26 69.9403C449.38 70.4903 447.95 71.2503 447.32 70.9403C445.072 69.5953 442.905 68.1194 440.83 66.5203C440.83 66.3403 440.83 66.1703 440.83 65.9903C441.305 65.4778 441.711 64.9065 442.04 64.2903C442.478 63.4728 442.655 62.5414 442.55 61.6203C441.06 57.4103 442.55 54.6903 446.92 53.8003C447.859 53.5416 448.775 53.2072 449.66 52.8003C451.56 52.0503 452.3 52.4903 453.19 55.1903C447.09 54.4503 447.36 60.4103 444.08 63.6803L448.67 66.0703C449.96 63.3103 455.13 64.0703 454.25 59.5903C460.01 58.5903 461.46 59.7403 460.97 64.4903C460.788 64.5948 460.593 64.6755 460.39 64.7303C458.87 64.9703 457.39 65.1803 455.83 65.4003C456.56 66.7303 457.38 68.0303 458.01 69.4003C459.62 72.9403 460.71 73.1803 462.8 69.4503C464.35 66.6903 468.85 66.9903 471.38 69.0603C473.91 71.1303 476.45 72.5803 478.8 74.5703C482.4 77.5703 482.19 80.3703 478.65 83.0903L481.34 87.3003C479.588 87.6413 477.804 87.7922 476.02 87.7503C474.17 87.5203 473.42 88.2803 472.9 89.7503L471.42 89.6903Z" fill="#2079C6"/>
<path d="M9.30008 342.47H4.70008C5.95008 338.61 7.05008 335.22 8.16008 331.82C9.84008 326.71 9.84008 326.71 4.70008 327.59C4.18236 327.612 3.6637 327.589 3.15008 327.52L2.48008 320.17C3.68904 319.875 4.79748 319.263 5.69122 318.397C6.58497 317.531 7.23171 316.443 7.56483 315.244C7.89796 314.044 7.90541 312.778 7.58643 311.575C7.26745 310.373 6.63357 309.277 5.75008 308.4C5.04008 307.65 3.14008 308.01 1.08008 307.77C1.51008 304.96 2.08008 301.56 2.57008 298.12C4.91008 298.27 5.74008 299.04 6.14008 301.12C6.69008 304.02 8.08008 306.77 9.05008 309.6C9.90008 312.08 10.6001 314.6 11.4901 317.07C12.1401 318.86 12.9901 320.49 15.3101 318.71C15.5379 318.575 15.7947 318.496 16.0592 318.481C16.3236 318.465 16.5879 318.513 16.8301 318.62C18.5501 319.62 19.8301 319.25 21.6501 318.39C23.4701 317.53 25.8001 318.39 26.1901 321.51C24.2501 321.28 22.5601 321 20.8501 320.88C18.2201 320.68 17.1601 322.27 17.8501 324.77C18.5801 327.5 18.8501 330.36 19.5601 333.09C20.4301 336.3 21.5601 339.42 22.6601 342.6C22.5401 342.7 22.3601 342.98 22.2301 342.95C16.9301 341.83 16.9301 341.83 18.4901 347.04C18.6223 347.58 18.7192 348.128 18.7801 348.68C15.0701 349.05 13.3101 347.79 12.6301 344.39C12.4491 343.744 12.2287 343.109 11.9701 342.49V336.04L10.2501 335.96L9.30008 342.47Z" fill="#247BC7"/>
<path d="M43.0508 434.65C46.6308 437.9 49.4608 443.13 53.4508 436.07C54.3998 437.796 55.4482 439.466 56.5908 441.07C57.8024 442.427 59.0948 443.709 60.4608 444.91C61.7008 443.55 62.9508 442.2 64.0808 440.97C64.6108 442.91 65.3608 445.45 65.9908 447.97C66.7408 450.97 67.3808 454.09 68.0808 457.15C68.1325 457.477 68.2824 457.781 68.5108 458.02C74.1208 462.64 71.9908 470.02 74.6608 475.62C74.8508 476.02 74.6108 476.62 74.5008 478.06C70.8608 473.88 67.7408 470.31 64.6708 466.8C67.6708 463.22 64.0608 460.86 64.2408 457.68C63.6812 457.896 63.1063 458.07 62.5208 458.2C61.1008 458.29 58.8808 458.9 58.4208 458.27C57.4857 456.853 57.1279 455.133 57.4208 453.46C58.5108 448.35 57.0708 445.8 52.2508 444.35C47.9208 443.1 44.7008 440.4 43.0508 434.65Z" fill="#247BC7"/>
<path d="M39.88 399.74C39.08 398.57 38.65 397.97 38.25 397.35C36.25 394.15 33.87 393.44 30.64 395.35C30.01 395.73 29.81 397 29.64 397.89C28.95 400.62 28.35 403.37 27.71 406.11H26.32C25.87 402.37 25.52 398.62 24.94 394.9C24.57 392.53 24.94 389.6 21 389.43C20.24 389.43 19 386.96 19 385.63C19 380.51 19.33 375.39 19.67 370.28C19.67 369.55 20.41 368.42 20.98 368.28C21.3954 368.304 21.7999 368.423 22.1622 368.627C22.5245 368.832 22.8351 369.117 23.07 369.46C25.77 373.51 28.41 377.61 30.93 381.78C31.1358 382.206 31.2543 382.669 31.2783 383.141C31.3024 383.613 31.2315 384.086 31.07 384.53C29.14 389.34 31.6 393.04 36.66 392.74C39.54 392.57 40.7 394.72 39.88 399.74Z" fill="#247BC7"/>
<path d="M120.119 71.3997C117.359 69.7097 114.869 69.3097 112.579 72.3397C111.859 73.3397 110.389 73.6897 109.179 74.3897C108.749 72.9097 108.779 72.9297 112.069 68.5297C113.419 66.7197 114.609 64.7697 116.069 62.5297L111.899 61.6897C112.239 58.9597 113.359 57.4997 116.349 57.9797C116.785 57.9454 117.204 57.8006 117.568 57.5592C117.932 57.3177 118.228 56.9875 118.429 56.5997C119.079 54.1497 120.709 53.7297 122.919 53.5997C124.51 53.3582 126.069 52.9424 127.569 52.3597C128.797 51.8831 130.061 51.5053 131.349 51.2297C134.349 50.8497 137.349 50.6597 140.349 50.4297C141.154 50.4563 141.955 50.5364 142.749 50.6697C141.749 52.0997 141.009 53.0497 140.429 54.1097C139.849 55.1697 139.499 56.2597 138.799 57.9297C135.399 54.5897 131.149 55.2297 127.059 55.3697C125.819 55.3697 123.839 56.4397 123.569 57.3697C122.979 59.4697 124.879 58.9097 126.169 58.9897C126.483 59.0526 126.776 59.1925 127.022 59.3967C127.268 59.6009 127.46 59.8631 127.579 60.1597C128.349 63.2897 128.919 63.7097 132.219 63.1597C132.719 63.0697 133.219 62.8897 133.729 62.7397C134.119 66.0797 132.729 68.2697 129.679 67.6697C125.679 66.8997 123.749 68.9897 121.599 71.3797L120.119 71.3997Z" fill="#247BC7"/>
<path d="M265.311 12.2897L271.241 18.1997L270.411 19.3597L266.411 17.3597C263.801 16.0797 261.181 14.8297 258.591 13.5097C257.591 13.0197 256.731 12.3897 255.311 11.5097L264.671 6.60968L256.571 1.84967C260.921 0.659675 263.731 1.91968 265.981 3.95968C267.341 5.19968 268.141 5.44968 269.651 4.50968C271.161 3.56968 272.361 4.09968 272.251 6.00968C272.081 9.00968 273.961 9.21968 275.931 8.54968C276.895 8.10295 277.99 8.02732 279.006 8.33725C280.023 8.64719 280.89 9.32095 281.441 10.2297C282.073 10.8763 282.74 11.4873 283.441 12.0597C284.201 12.8797 285.571 13.8297 285.501 14.6097C285.241 17.2597 286.661 20.4597 282.501 21.9197C277.301 23.7197 277.421 24.0697 276.831 29.5097H271.831C274.721 24.0297 279.481 20.7197 283.411 15.7297C281.701 15.2497 280.231 14.9097 278.821 14.4297C277.411 13.9497 275.481 13.6797 274.671 12.6297C271.141 8.17968 271.471 7.92968 265.311 12.2897Z" fill="#257BC7"/>
<path d="M114.559 507.01C113.559 505.01 112.559 503.09 111.969 501.87C109.399 501.69 107.179 502.03 105.389 501.3C100.879 499.47 96.5694 497.17 92.6094 495.3C94.2594 493.42 95.5394 491.74 97.0394 490.3C99.3494 488.07 101.809 485.98 104.309 483.74L110.249 496.09C112.019 495.09 113.039 494.09 113.899 494.17C115.429 494.39 117.389 494.93 118.209 496.04C119.209 497.45 118.799 499.19 116.469 499.76C113.529 500.48 114.149 502.23 115.609 503.92C117.069 505.61 116.499 506.58 114.479 507.01H114.559Z" fill="#247BC7"/>
<path d="M298.21 9.46973C295.95 7.65973 293.65 7.46973 291.66 9.22973L280.08 0.969727L280.45 0.219727H287.36C289.51 4.76973 289.69 4.62973 295.2 4.26973C296.77 4.16973 298.46 5.89973 300.36 6.93973C300.848 6.38481 301.422 5.91208 302.06 5.53973C303.006 5.31449 303.981 5.24024 304.95 5.31973L301.59 1.31973C304.72 0.979725 307.93 -0.56027 309.14 3.76973C309.37 4.55973 311.5 4.94972 312.81 5.23972C313.49 5.39972 314.3 4.77973 315.05 4.78973C316.83 4.78973 319.66 4.42972 320.12 5.27972C320.91 6.70972 320.37 8.99972 320.02 10.8497C319.92 11.3797 318.41 12.1497 317.78 11.9797C316.111 11.4072 314.49 10.7051 312.93 9.87973L309.28 8.21973C308.9 9.36973 308.51 10.5197 308.14 11.6697C308.04 11.9797 307.99 12.3097 307.86 12.8697L299.7 10.1997L298.21 9.46973Z" fill="#2179C7"/>
<path d="M256.2 14.9303C251.2 17.2403 246.92 17.4603 242.41 15.8503C240.531 15.2541 238.58 14.9177 236.61 14.8503C236.21 14.8503 235.31 16.0003 235.35 16.5603C235.428 17.004 235.406 17.4597 235.284 17.8936C235.163 18.3275 234.945 18.7284 234.647 19.0666C234.349 19.4048 233.979 19.6715 233.564 19.847C233.149 20.0225 232.7 20.1022 232.25 20.0803C230.03 20.1603 227.04 21.8003 225.83 18.1503C225.75 17.9203 225.27 17.8403 225 17.6503C223.74 16.7903 221.36 15.7603 221.45 15.0703C222.004 12.2546 222.807 9.4937 223.85 6.82027C223.85 6.76027 224.27 6.82027 224.66 6.82027C225.57 9.69027 226.8 12.5403 227.31 15.5103C227.82 18.4803 229.92 17.4403 231.39 17.3903C231.9 17.3903 232.48 15.6303 232.78 14.6003C232.94 14.0503 232.56 13.3503 232.31 12.1603C236.31 12.1603 240.07 12.0903 243.82 12.1603C246.42 12.2303 247.92 11.9303 246.96 8.57027C246.51 6.95027 247.3 4.87028 247.96 3.13028C248.15 2.61028 249.65 2.55027 250.55 2.28027C250.721 3.01041 250.772 3.76374 250.7 4.51028C249.7 7.83028 252.25 13.4003 256.2 14.9303Z" fill="#257BC7"/>
<path d="M14.9301 225.53C14.5301 222.15 14.1301 218.77 13.7001 215.08L7.83008 217.28L10.9401 208.81L12.1401 208.97C12.8067 210.763 13.5001 212.557 14.2201 214.35L15.3301 214.61C16.1453 212.407 16.8364 210.16 17.4001 207.88C17.7601 206.05 18.2101 205.08 20.4001 204.97C23.072 204.758 25.7155 204.275 28.2901 203.53C29.1801 203.29 29.9201 202.31 30.6501 201.58C31.8301 200.4 32.9401 199.14 34.6501 197.29C35.7601 203.21 29.9601 204.39 30.1501 209.29C26.2401 205.94 24.1501 207.18 22.7601 210.46C22.6403 210.778 22.4364 211.058 22.1701 211.27C17.4401 214.27 15.7501 218.32 17.3001 223.8C17.4801 224.42 16.3001 225.43 15.7601 226.26L14.9301 225.53Z" fill="#267CC8"/>
<path d="M440.92 502.75L431.61 503.88C430.94 502.24 431.06 500.66 433.38 499.78C433.58 499.7 433.74 499.5 433.93 499.4C439.99 496.15 442.93 497.25 445.3 503.64C446.49 506.84 448.7 508.12 451.77 506.71C454.84 505.3 457.77 507.59 460.77 507.17C461.03 507.17 461.91 508.61 461.77 508.94C460.932 510.418 459.925 511.794 458.77 513.04C458.46 513.37 457.49 513.09 456.84 513.09C455.49 509.09 454.05 508.49 450.33 510.22C447.94 511.34 445.68 512.48 443.6 509.22C442.96 508.22 440.36 508.45 438.23 508.04L440.92 502.75Z" fill="#227AC7"/>
<path d="M25.8305 364.92C24.2305 364.65 22.6105 364.41 21.0205 364.1C15.4739 363.033 13.2472 365.233 14.3405 370.7C14.5105 371.57 14.5605 372.45 14.6705 373.32L13.8305 373.51C12.8305 370.34 10.2105 366.63 11.0705 364.1C12.8505 358.87 10.4905 355.93 8.07054 352.1C5.91054 348.73 7.27054 346.76 10.6805 346.75C11.1605 350.08 12.1505 353.14 16.3705 353.38C16.5794 353.463 16.7631 353.598 16.9034 353.774C17.0437 353.949 17.1358 354.158 17.1705 354.38C17.0805 358.04 20.1705 358.65 22.4205 360.14C23.9008 361.301 25.2609 362.608 26.4805 364.04L25.8305 364.92Z" fill="#257BC7"/>
<path d="M323.699 13.68C326.229 13.36 328.789 13.19 331.269 12.68C331.825 12.5612 332.352 12.3317 332.817 12.0053C333.283 11.6789 333.678 11.2622 333.979 10.78C334.112 10.2704 334.114 9.73533 333.985 9.22474C333.855 8.71416 333.599 8.24465 333.239 7.85997C332.238 7.27291 331.069 7.0404 329.919 7.19997C328.079 7.31997 326.279 7.88997 324.449 7.99997C324.094 7.9357 323.762 7.78155 323.483 7.55221C323.205 7.32288 322.99 7.02601 322.859 6.68997C322.759 6.24997 323.469 5.36997 324.019 5.07997C324.96 4.53314 326.007 4.19229 327.089 4.07997C329.436 3.91996 331.792 3.91996 334.139 4.07997C335.579 4.18997 338.069 4.53997 338.199 5.18997C338.609 7.05997 338.089 9.18997 337.879 11.19C337.727 13.3554 337.463 15.5116 337.089 17.65C336.809 18.99 336.379 20.87 335.419 21.37C333.419 22.37 332.939 20.48 332.419 18.97C331.769 17.05 330.419 16.37 328.349 16.27C326.679 16.19 325.039 15.33 323.349 14.81C323.499 14.4 323.599 14.05 323.699 13.68Z" fill="#227AC7"/>
<path d="M85.3598 81.4999L93.3598 78.4199L94.1498 78.9099L91.0198 84.8299C93.3298 88.2699 93.0198 88.4599 88.9498 90.6299C85.9124 92.1179 83.2184 94.2227 81.0398 96.8099C78.0398 100.81 74.5698 99.7099 70.8198 98.8899C69.8198 95.5999 72.5798 95.1899 74.3398 95.1999C79.9098 95.1999 82.8298 91.6399 85.5798 87.7199C86.0198 87.0799 85.7798 85.8999 85.7298 84.9799C85.6998 83.7699 85.4798 82.5799 85.3598 81.4999Z" fill="#2179C7"/>
<path d="M301.179 570.97C300.659 568.45 300.429 565.76 299.479 563.37C298.969 562.11 297.179 561.37 295.619 560.1C295.619 559.57 295.759 558.39 295.899 556.75C297.899 557.01 299.849 556.89 301.499 557.56C303.969 558.56 305.149 557.39 306.499 555.73C307.441 554.886 308.494 554.176 309.629 553.62C311.059 559.27 305.999 559.14 303.479 561.94L308.189 564C307.159 568.82 305.539 570.55 301.179 570.97Z" fill="#227AC7"/>
<path d="M46.18 428.93L49.3 424.34C50.3 425.96 51.56 427.34 52.06 429.04C52.1421 429.633 52.0733 430.237 51.8601 430.797C51.6469 431.356 51.296 431.852 50.84 432.24C50.2 432.64 48.28 432.02 47.69 431.24C46.37 429.53 45.06 429.06 43.08 429.85C41.1 430.64 39.43 430.1 38.35 428.06C37.27 426.02 36.07 424.22 35.04 422.24C32.86 418.02 32.91 417.93 36.74 413.24C37.34 414.97 38.38 416.39 38.07 417.37C37.16 420.17 38.45 421.83 40.28 423.47C42.11 425.11 43.86 426.81 46.18 428.93Z" fill="#287DC8"/>
<path d="M51.1605 142.6C51.6405 143.35 52.1605 144.07 52.5905 144.85C53.2405 146.07 54.5905 147.85 54.2405 148.48C53.5905 149.63 51.8705 150.41 50.4505 150.82C48.8705 151.27 47.7205 150.68 47.6605 148.58C47.5805 145.86 47.1305 143.15 46.7505 139.58L37.9705 145.58C37.5805 141.76 42.1905 135.86 45.3505 135.1L51.1505 140.56L51.1605 142.6Z" fill="#257CC8"/>
<path d="M218.091 18.8503L216.431 22.1503C219.371 22.4403 222.071 22.6103 224.741 23.0203C225.551 23.1403 226.271 23.9103 227.031 24.3903C226.251 25.0503 224.981 26.3903 224.771 26.2803C221.531 24.0203 218.371 25.8803 215.201 26.2803C215.011 26.2803 214.791 26.1403 214.391 25.9803C214.841 23.7303 215.121 21.4103 211.751 21.1103C211.531 20.9829 211.347 20.8029 211.214 20.5864C211.081 20.3699 211.005 20.1239 210.991 19.8703C212.201 16.5203 209.601 15.4703 207.631 13.9803C206.993 13.4101 206.408 12.7843 205.881 12.1103C210.741 9.39033 213.411 10.6203 214.471 15.2803C214.751 16.5103 216.551 17.4003 218.091 18.8503Z" fill="#257BC7"/>
<path d="M499.15 109.69C498.263 108.806 497.46 107.841 496.75 106.81C495.244 104.288 493.908 101.669 492.75 98.9697C492.208 97.3124 491.961 95.5726 492.02 93.8297C492.02 91.7797 492.14 89.9197 489.07 90.4697C486.92 90.8597 486.33 89.3397 486.5 87.5497C486.63 86.2597 487.01 84.9897 487.38 83.2197C489.82 85.5897 492.58 87.4997 494.24 90.1197C495.7 92.4097 495.84 95.5197 496.71 98.2097C497.44 100.49 498.38 102.69 499.21 104.93C499.68 106.21 500.1 107.5 500.55 108.78L499.15 109.69Z" fill="#237BC7"/>
<path d="M425.36 524.96C425 523.23 425.25 521.82 428.11 521.71C430.97 521.6 432.65 520.65 431.62 517C430.71 513.76 433.74 514.14 436.3 513.66C435.81 516.33 435.37 518.66 434.83 521.66L442.7 522.4C442.7 524.2 440.42 525.98 437.85 525.81C433.83 525.56 429.81 525.27 425.36 524.96Z" fill="#287DC8"/>
<path d="M4.57029 261.4L2.37029 268.13L1.47029 268.2C1.18029 266.58 0.350287 264.82 0.720288 263.37C1.61014 260.403 2.71644 257.506 4.03029 254.7C4.13821 254.533 4.28614 254.395 4.46072 254.299C4.6353 254.203 4.83105 254.152 5.03029 254.15C5.43029 254.31 6.03029 254.81 6.03029 255.15C5.97029 259.72 10.2903 261.71 11.9203 265.27C12.9203 267.43 14.1203 269.48 15.3503 271.79C12.9003 272.24 12.9003 272.24 4.57029 261.4Z" fill="#297EC8"/>
<path d="M41.7007 170.84C42.7007 172.29 44.0707 173.62 44.7007 175.23C44.9607 175.94 43.9907 177.74 43.1607 178.11C40.8507 179.11 40.5907 181.05 40.4607 183.02C40.3007 185.48 40.7607 188.02 40.2407 190.39C39.9307 191.78 38.3007 192.95 37.0607 193.97C36.8807 194.12 35.2907 193.04 34.8207 192.26C33.8207 190.67 34.4507 189.64 36.0607 188.46C37.2407 187.59 37.8107 185.62 38.2307 184.02C38.7637 181.713 39.1512 179.375 39.3907 177.02C39.4907 176.18 39.1307 175.28 39.2707 174.46C39.531 173.29 39.865 172.138 40.2707 171.01L41.7007 170.84Z" fill="#267CC8"/>
<path d="M483.7 98.9503C480.7 97.2103 477.789 95.8603 479.319 92.1003C483.739 90.9103 484.87 91.6403 485.48 96.1003C485.594 96.8609 485.806 97.6036 486.109 98.3103C487.319 101.19 488.339 103.19 484.689 106.04C481.949 108.18 480.689 107.86 478.689 106.39C478.378 106.027 478.145 105.603 478.006 105.145C477.866 104.687 477.823 104.206 477.879 103.73C477.879 103.36 479.309 103.21 479.879 102.73C481.109 101.7 482.16 100.52 483.7 98.9503Z" fill="#2179C6"/>
<path d="M418.7 37.6703C418.63 33.7603 411.7 36.0803 412.7 29.7803C415.57 31.1503 418.18 32.1903 420.59 33.5803C423.59 35.2703 423.52 35.9903 420.97 38.3203C424.18 44.0503 424.57 44.5003 426.87 44.9603C425.69 46.7203 424.55 48.4403 423.4 50.1503L423.25 51.2803C421.74 50.2803 419.15 49.5403 418.95 48.3603C418.29 44.8803 418.7 41.2503 418.7 37.6703Z" fill="#2179C6"/>
<path d="M47.3909 424.2C46.3909 422.26 44.6209 420.32 44.6009 418.36C44.5409 413.8 44.4009 409.44 41.9109 405.43C41.6109 404.94 41.7909 404.15 41.7109 402.9C45.6109 405.54 48.3209 404.53 50.4709 401.02C50.7109 400.62 52.3209 401.07 53.3009 401.13C53.1709 402.22 53.3809 403.99 52.8409 404.26C50.7209 405.33 49.5909 408.67 46.3709 407.26C46.1609 408.58 45.5809 409.98 45.8209 411.2C46.6609 415.36 47.8209 419.46 48.8209 423.58L47.3909 424.2Z" fill="#2A7FC9"/>
<path d="M377.451 41.7199C380.591 41.8899 383.321 41.8199 385.141 38.7199C385.641 37.8899 387.941 38.1299 389.421 37.8799C389.245 38.9963 389.245 40.1334 389.421 41.2499C389.796 42.4471 390.487 43.5212 391.421 44.3599C393.641 46.1799 396.671 47.3599 396.301 51.0599C393.191 51.2199 389.151 48.5399 388.081 45.7799C386.961 42.8599 385.711 42.4399 382.971 44.0399C382.501 44.3099 381.971 44.5899 381.521 44.8399C378.171 46.5899 377.371 46.0699 377.451 41.7199Z" fill="#227AC7"/>
<path d="M114.48 506.95C117.68 509.65 120.93 512 125.38 512.55C126.8 512.72 127.95 515.1 129.23 516.47C128.92 516.99 128.61 517.47 128.31 518.02C126.8 517.57 125.02 517.5 123.86 516.61C121.684 514.733 118.923 513.672 116.05 513.61C112.48 513.61 109.97 510.98 107.93 508.54L114.56 507.02L114.48 506.95Z" fill="#257BC7"/>
<path d="M521.23 159.17C519.23 159.28 517.8 159.63 516.61 159.29C515.99 159.11 515.7 157.74 515.34 156.4C519.84 158.24 519.9 153.29 523.2 151.97C523.72 154.38 524.11 156.42 524.61 158.43C524.89 159.6 525.37 160.72 525.7 161.88C526.085 163.01 526.357 164.176 526.51 165.36C526.51 165.97 526 166.62 525.71 167.25C525.245 166.888 524.725 166.604 524.17 166.41C523.234 166.205 522.265 166.205 521.33 166.41C520.71 166.6 520.33 167.41 519.76 167.98C519.26 167.46 518.35 166.93 518.35 166.42C518.35 165.55 518.71 164.2 519.35 163.89C521.86 162.68 521.93 161 521.23 159.17Z" fill="#227AC7"/>
<path d="M16.1003 248.2C16.1003 248.67 16.4803 250.32 15.8403 251.25C14.8403 252.67 12.5703 254.83 11.8403 254.5C9.43029 253.36 5.62029 254.35 4.74029 250.73C4.47029 249.63 4.88028 247.48 5.55028 247.21C7.2573 246.633 9.0722 246.449 10.8603 246.67C12.4303 246.8 13.9303 247.54 16.1003 248.2Z" fill="#237BC7"/>
<path d="M298.21 9.46973L299.65 10.1997C299.539 11.0616 299.59 11.9365 299.8 12.7797C300.87 15.0997 300.72 16.7797 298.11 17.8897C297.39 18.1997 297.03 19.4097 296.58 20.2497C295.22 22.8597 294.44 25.9497 291.05 26.8497C289.61 24.7097 290.97 20.3597 293.32 18.9397C294.06 18.4997 295.06 17.2597 294.88 16.7597C294.08 14.5297 295.42 13.5297 296.74 12.2597C297.374 11.4133 297.87 10.4716 298.21 9.46973Z" fill="#287DC8"/>
<path d="M478.621 483.22C481.081 490.22 478.561 497.64 472.841 499.76L476.311 494.76C475.021 492.96 470.311 492.63 472.061 489.21C473.231 486.81 476.191 485.33 478.621 483.22Z" fill="#2079C6"/>
<path d="M112.53 483.4C111.53 483.21 110.64 483.31 110.35 482.94C106.77 478.31 100.29 479.61 96.2705 476C94.2705 474.21 92.4005 472.28 90.4805 470.42L91.3605 469.1C92.4236 469.486 93.4622 469.937 94.4705 470.45C97.0658 471.799 99.5531 473.347 101.91 475.08C105.28 477.79 110.56 478.11 112.53 483.4Z" fill="#267CC8"/>
<path d="M106.48 79.0703C106.81 81.8503 107.04 83.7803 107.27 85.7303L111.6 87.9703C109.26 89.9703 107.68 91.1203 105.55 88.7003C104.98 88.0503 103.38 88.0603 102.29 88.1703C100.584 88.4368 98.8949 88.8007 97.2305 89.2603L96.4805 88.1503L106.48 79.0703Z" fill="#267CC8"/>
<path d="M454.34 483.32C451.09 484.01 450.01 482.47 450.04 479.2C450.04 477.37 449.04 475.52 448.49 473.54C450.88 473.05 452.24 472.74 453.24 475.2C454.24 477.66 456.35 479.93 457.8 482.38C458.383 483.446 458.725 484.627 458.8 485.84C458.8 486.07 457.03 486.91 456.68 486.65C455.927 485.893 455.308 485.014 454.85 484.05L454.34 483.32Z" fill="#2179C6"/>
<path d="M26.0996 167.22C27.5996 163.61 28.7896 160.73 30.1896 157.33C31.4196 158.44 32.3996 158.94 32.7696 159.72C33.9696 162.28 34.6696 165.21 38.4696 165.05C38.6696 165.05 38.9396 166.56 39.1796 167.38C37.9796 167.62 35.9196 168.38 35.7296 168.02C33.9596 164.91 32.0496 164.61 29.4296 167.02C28.9996 167.4 27.9696 167.12 26.0996 167.22Z" fill="#2A7FC9"/>
<path d="M88.4804 454.2C85.1904 454.8 84.6904 452.82 84.6104 451.08C84.4304 446.92 83.1604 443.83 78.8304 442.32C76.7004 441.58 76.5204 439.4 77.5604 437.55C78.1841 436.829 79.0611 436.374 80.0104 436.28C80.3487 436.321 80.6724 436.442 80.9543 436.633C81.2362 436.824 81.4681 437.081 81.6304 437.38C83.5304 441.38 85.3704 445.46 87.1204 449.55C87.6654 451.072 88.1196 452.625 88.4804 454.2Z" fill="#2B7FC9"/>
<path d="M495.04 464.47C491.61 468.47 490.84 468.6 486.29 467.18C485.37 466.9 484.13 467.67 483.03 467.95L479.73 468.78C479.59 468.16 479.12 467.3 479.36 466.97C480.08 465.97 480.96 464.82 481.99 464.55C484.14 463.99 486.68 464.6 487.74 461.71C487.88 461.34 489.24 461 489.74 461.25C491.56 462.18 493.26 463.4 495.04 464.47Z" fill="#247BC7"/>
<path d="M498.009 474.53C497.689 479.98 489.709 485.53 483.859 485.14C484.619 483.41 486.389 481.65 483.959 479.88C483.779 479.74 484.839 477.88 485.319 476.88C486.149 477.27 487.379 477.45 487.729 478.1C488.889 480.24 490.169 480.45 492.009 479C493.849 477.55 495.699 476.24 498.009 474.53Z" fill="#237AC7"/>
<path d="M14.4892 202.23C14.0536 201.238 13.7866 200.181 13.6992 199.1C13.9025 197.227 14.3014 195.381 14.8892 193.59C15.0692 193.01 16.1192 192.1 16.3692 192.22C20.3692 194.03 20.6992 190.79 21.7592 188.48C21.9855 188.108 22.2651 187.771 22.5892 187.48C25.2892 189.12 25.7592 191.95 23.4792 193.58C21.7792 194.81 19.3992 195.24 18.0092 196.68C16.6192 198.12 16.1892 200.3 15.3392 202.16L14.4892 202.23Z" fill="#287DC8"/>
<path d="M25.3197 227.62C25.2183 230.157 25.245 232.696 25.3997 235.23C25.7101 236.453 26.2349 237.611 26.9497 238.65C27.3297 239.37 28.1597 240.05 28.1497 240.74C28.1397 241.43 27.3097 242.04 26.8397 242.74C26.3885 242.141 25.8794 241.589 25.3197 241.09C21.1097 238.09 22.0797 233.01 19.4297 228.81L25.3197 227.62Z" fill="#267CC8"/>
<path d="M18.9102 182.4C19.8502 181.17 20.7302 179.9 21.7202 178.72C22.7102 177.54 24.4402 176.61 24.6202 175.38C25.1002 172.21 27.0002 172.38 28.7202 172.62L31.4202 177.48L32.2402 177.16L31.2402 180.52C25.9702 175.93 23.4302 181.38 19.9402 183.52L18.9102 182.4Z" fill="#257BC7"/>
<path d="M41.0508 152.16C42.8408 152.69 45.3908 152.7 46.2308 153.9C47.2308 155.32 47.0008 157.79 46.8608 159.77C46.635 162.717 46.037 165.624 45.0808 168.42C42.2708 165.99 42.9008 163.27 43.8208 160.52C45.0708 156.8 44.0508 154.52 40.5508 153.19L41.0508 152.16Z" fill="#2D81CA"/>
<path d="M497.499 123.4C499.579 122.11 500.779 120.85 502.139 120.64C504.011 120.333 505.931 120.533 507.699 121.22C508.819 121.7 509.399 123.45 510.699 125.38C508.019 125.38 506.259 125.92 505.239 125.28C502.389 123.47 501.449 124.41 501.449 127.28C497.979 127.54 497.229 126.55 497.499 123.4Z" fill="#2179C6"/>
<path d="M523.901 131.84C525.971 133.15 527.631 133.68 528.411 134.84C529.502 136.389 530.161 138.201 530.321 140.09C530.321 141.31 529.051 142.6 527.901 144.65C526.731 142.24 525.48 140.9 525.61 139.7C525.99 136.35 524.741 135.91 522.131 137.18C520.361 134.09 520.921 132.99 523.901 131.84Z" fill="#2179C6"/>
<path d="M153.75 52.1104C153.99 51.8704 154.23 51.6404 154.46 51.4004L163.13 57.6804C161.58 58.6804 158.91 59.6804 157.4 61.5604C156.11 63.2104 156.16 65.9004 155.46 68.7604L151.73 69.6204C153.47 66.3004 154.78 63.6804 156.19 61.1104C158.81 56.3304 158.49 55.0704 153.75 52.1104Z" fill="#2D81CA"/>
<path d="M31.6006 215.13C33.6006 218.43 34.2406 220.47 30.7106 221.88C29.3006 222.44 28.2606 223.95 27.0606 225.02L21.5306 221.66C21.2606 219.54 22.2106 218.58 24.7706 219.78C26.5306 220.61 27.7706 221 28.4006 218.38C28.7006 217.21 30.3206 216.4 31.6006 215.13Z" fill="#297EC8"/>
<path d="M86.2393 471.79C85.7693 474.79 85.5193 476.99 85.0193 479.15C84.7993 480.15 84.1793 481.51 83.5093 481.66C82.9978 481.638 82.4984 481.497 82.0506 481.249C81.6028 481.001 81.2189 480.652 80.9293 480.23C79.5593 478.17 78.2093 476.07 81.4393 474.05C82.6593 473.29 83.1193 471.31 84.2293 469.34C85.2493 470.58 86.0393 471.53 86.2393 471.79Z" fill="#267CC8"/>
<path d="M454.97 83.5996C450.9 83.9096 447.49 82.2396 444.15 80.5196C443.65 80.2596 443.51 78.9396 443.57 78.1396C443.57 77.7196 444.39 77.1396 444.92 77.0196C449.01 76.1296 453.7 79.1096 454.97 83.5996Z" fill="#237AC7"/>
<path d="M21.3705 294.45C16.5505 299.31 16.1805 305.28 17.1805 311.59H15.7605C14.7605 308.67 13.6505 305.79 12.9105 302.81C12.7305 302.08 13.7005 300.89 14.3905 300.14C15.9105 298.5 18.5205 297.72 18.2705 294.72C18.2705 294.48 19.7105 294.11 20.4805 293.8L21.3705 294.45Z" fill="#297EC8"/>
<path d="M227.52 552.85L225.35 551.4C225.89 549.89 225.45 547.85 227.87 547.34C228.26 547.25 228.11 545.44 228.56 544.62C229.025 543.591 229.815 542.745 230.81 542.21C231.4 542 232.69 542.92 233.25 543.66C234.112 544.905 234.881 546.212 235.55 547.57C232.97 548.57 230.55 549.38 228.28 550.49C227.77 550.78 227.76 552.05 227.52 552.85Z" fill="#297EC9"/>
<path d="M190.7 549.4C190.95 550.63 191.22 551.85 191.46 553.08C191.57 553.66 191.65 554.25 191.74 554.83C191.05 554.83 190.18 554.99 189.74 554.65C188.206 553.533 186.737 552.332 185.34 551.05C183.23 549.15 181.34 546.05 178.02 549.69C178.44 548.78 178.88 547.88 179.28 546.95C180.39 544.37 181.72 544.03 183.67 546.13C184.567 547.136 185.661 547.949 186.883 548.518C188.106 549.087 189.432 549.401 190.78 549.44L190.7 549.4Z" fill="#287DC8"/>
<path d="M506.43 111.17C505.91 109.27 505.58 107.53 504.95 105.9C504.32 104.27 503.47 103 502.25 100.67C503.47 101.112 504.585 101.801 505.527 102.694C506.468 103.587 507.215 104.665 507.72 105.86C508.72 107.86 510.1 109.64 511.44 111.74C509.61 112.21 506.63 112.03 507.76 115.74L500.94 116.11L500.68 115.46C502.53 114.09 504.37 112.71 506.43 111.17Z" fill="#2179C6"/>
<path d="M224.26 38.3996C222.39 46.4596 221.37 47.0496 211.26 45.4796C211.67 44.3696 211.78 42.8896 212.51 42.4796C213.042 42.2492 213.615 42.1304 214.195 42.1304C214.774 42.1304 215.348 42.2492 215.88 42.4796C219.2 43.8696 220.88 43.1196 221.74 39.7296C221.96 38.9096 222.87 38.2696 223.46 37.5596L224.26 38.3996Z" fill="#267CC8"/>
<path d="M329.08 31.1802C327.124 31.2793 325.164 31.2593 323.21 31.1202C322.345 30.8282 321.539 30.3847 320.83 29.8102C321.238 29.0203 321.783 28.3092 322.44 27.7102C323.52 27.1492 324.657 26.7034 325.83 26.3802L323.25 21.3802C327.11 20.3802 329.03 21.4902 330.37 25.3802C326.89 25.8502 325.43 27.4002 329.08 31.1802Z" fill="#2179C6"/>
<path d="M70.6992 133.96L75.4692 128.31C72.2992 124.86 72.2792 122.76 75.2392 122.15C76.2392 121.94 78.0792 122.22 78.4592 122.89C79.1492 124.12 79.7892 126.31 79.1592 127.2C77.1819 129.686 75.0047 132.007 72.6492 134.14C72.5092 134.29 72.0392 134.1 70.6992 133.96Z" fill="#257CC8"/>
<path d="M464.699 481.63C465.089 480.63 465.209 479.19 465.889 478.86C469.216 477.247 472.636 475.831 476.129 474.62C476.669 474.43 477.699 475.62 478.499 476.16C477.869 476.98 477.399 478.29 476.589 478.53C472.909 479.68 469.089 480.53 464.699 481.63Z" fill="#2079C6"/>
<path d="M168.239 536.46C161.939 536.83 159.829 535.77 158.699 532.22C160.839 530.84 165.859 534.41 164.989 527.62L168.779 528.62L166.539 531.72L168.239 536.46Z" fill="#227AC7"/>
<path d="M83.7008 102.34C83.2108 97.87 87.3908 96.14 95.4008 97.34C95.2108 100.34 89.1208 103.03 83.7008 102.34Z" fill="#2179C6"/>
<path d="M407.7 504.34L409.78 505.34C409.47 505.93 409.29 506.86 408.78 507.05C407.624 507.431 406.599 508.128 405.821 509.064C405.043 509.999 404.544 511.134 404.38 512.34C404.208 513.219 403.721 514.005 403.01 514.55C401.813 515.246 400.558 515.838 399.26 516.32C399.383 515.164 399.436 514.002 399.42 512.84C399.21 509.84 400.93 508.84 403.49 508.23C404.3 508.04 404.92 506.98 405.62 506.32C406.32 505.66 406.99 505.02 407.7 504.34Z" fill="#237AC7"/>
<path d="M460.36 492.46C460.92 495.55 459.65 497.08 456.65 497.67C455.47 497.9 454.51 499.17 453.32 499.58C452.257 499.776 451.171 499.807 450.1 499.67C450.34 498.61 450.24 496.98 450.89 496.58C453.75 494.81 455.75 490.98 460.36 492.46Z" fill="#2179C7"/>
<path d="M55.1801 115.66H63.1801C63.3601 118.13 62.3501 120.4 59.7101 120.84C58.7899 120.907 57.8657 120.789 56.9916 120.494C56.1176 120.198 55.3113 119.731 54.6201 119.12C54.0601 118.57 55.0801 116.23 55.1801 115.66Z" fill="#267CC8"/>
<path d="M94.4199 74.8105C96.2699 72.9405 97.7999 70.3205 98.9999 70.4605C100.71 70.6605 102.52 72.6805 103.62 74.3505C104.29 75.3505 99.7299 78.5105 97.7899 77.9805C96.6999 77.7005 95.9599 76.3305 94.4199 74.8105Z" fill="#227AC7"/>
<path d="M270.369 554.68C276.119 555.35 281.879 556.94 287.479 553.79L288.229 554.79C287.529 555.9 287.009 557.79 286.109 557.99C280.509 559.19 275.099 558.67 270.369 554.68Z" fill="#227AC7"/>
<path d="M400.349 44.9498C402.087 43.8524 403.913 42.9024 405.809 42.1098C406.989 41.7198 409.149 41.7198 409.669 42.4198C410.021 43.0647 410.233 43.7769 410.29 44.5094C410.346 45.242 410.247 45.9783 409.999 46.6698C409.729 47.4198 407.839 48.0998 406.789 47.9498C404.499 47.5061 402.244 46.9013 400.039 46.1398L400.349 44.9498Z" fill="#2079C6"/>
<path d="M250.31 22.6803L240.44 28.9303C238.13 25.4303 238.79 23.3503 242.54 22.3403C243.729 22.0221 244.944 21.8079 246.17 21.7003C247.37 21.5903 248.59 21.7003 249.81 21.7003L250.31 22.6803Z" fill="#267CC8"/>
<path d="M10.0703 288.69C12.5003 283.22 14.6603 278.33 16.8203 273.45C18.8003 279.24 15.2103 287.13 10.0703 288.69Z" fill="#267CC8"/>
<path d="M195.359 24.0302C198.009 23.0302 200.089 22.6602 201.529 21.5102C202.319 20.8802 202.059 18.9202 202.979 17.7002C203.579 19.5202 204.219 21.3302 204.759 23.1702C204.899 23.6702 204.909 24.6602 204.699 24.7502C202.776 25.7048 200.735 26.4008 198.629 26.8202C197.819 26.9202 196.789 25.3002 195.359 24.0302Z" fill="#297EC9"/>
<path d="M427.2 76.9205C423.68 76.9205 420.01 77.5305 416.69 76.7105C414.26 76.1205 412.64 73.4705 413.47 69.4805C414.427 70.1234 415.315 70.864 416.12 71.6905C416.748 72.6478 417.638 73.4051 418.684 73.8729C419.729 74.3407 420.887 74.4995 422.02 74.3305C423.78 74.1705 425.64 75.1305 427.45 75.5905C427.37 76.0305 427.29 76.4805 427.2 76.9205Z" fill="#2079C6"/>
<path d="M355.91 24.2503C356.2 21.0503 354.76 20.3003 352.04 20.0603C350.75 19.9503 349.34 17.9703 348.58 16.5303C348.23 15.8603 349.31 14.4403 349.77 13.2803C353.22 15.9203 356.16 18.1103 359 20.4303C359.26 20.6403 359.05 21.9003 358.67 22.3203C357.825 23.0642 356.899 23.7115 355.91 24.2503Z" fill="#227AC7"/>
<path d="M25.6091 350.67C25.3891 346.11 24.4891 341.85 28.0491 338.33C30.6991 341.2 29.1891 349.14 25.6091 350.67Z" fill="#237BC7"/>
<path d="M412.251 54.5596C412.481 55.5596 412.881 56.3196 412.661 56.5596C411.191 58.5596 411.601 60.2996 412.491 62.3896C413.081 63.7896 412.171 64.8296 410.491 64.1596C409.324 63.8011 408.246 63.1977 407.331 62.3896C406.831 61.8496 407.061 60.6296 406.961 59.7196C409.611 59.5196 409.961 57.7196 409.961 55.5996C409.941 55.3196 411.211 55.0196 412.251 54.5596Z" fill="#257CC8"/>
<path d="M343.78 27.6998C340.95 27.3898 338.91 26.6198 339.27 23.8698C339.39 22.9398 341.94 21.3798 342.82 21.6998C344.69 22.3598 346.19 24.0598 347.82 25.3298L343.78 27.6998Z" fill="#2179C7"/>
<path d="M291.15 521.86L291.41 517.36C294 519.01 296.41 520.22 298.3 521.96C298.85 522.45 298.01 524.48 297.84 525.58L292.05 524.58L291.15 521.86Z" fill="#BCD7EE"/>
<path d="M422.399 503.97C420.799 501.97 418.939 500.66 418.969 499.39C418.969 498.3 421.029 496.72 422.449 496.32C424.649 495.71 425.979 497.7 425.759 499.47C425.589 500.84 423.929 502.03 422.399 503.97Z" fill="#287DC8"/>
<path d="M424.41 54.4697C424.82 58.3597 421.86 61.7297 419.15 61.4697C418.637 61.375 418.153 61.1646 417.733 60.8544C417.314 60.5442 416.971 60.1424 416.73 59.6797C416.44 58.9097 416.88 57.1797 417.48 56.8797C419.737 55.9314 422.052 55.1265 424.41 54.4697Z" fill="#2079C6"/>
<path d="M45.2391 360.98C47.1191 365.98 44.4691 367.8 40.1191 369.43C39.1191 367.28 38.1191 365.01 37.1191 362.73L38.2991 361.91C38.8791 362.41 39.4391 362.91 40.0291 363.4C40.8091 364.06 41.6091 364.7 42.4091 365.35L43.8791 363.06C44.2191 362.48 44.6091 361.91 45.2391 360.98Z" fill="#297EC8"/>
<path d="M440.78 66.0097C440.78 66.1897 440.78 66.3597 440.78 66.5397C439.891 66.4368 438.994 66.4133 438.1 66.4697C433.68 67.1097 430.67 64.2997 430.83 59.2197C434.34 59.7497 435.7 62.6397 437.68 64.8497C438.37 65.5697 439.7 65.6397 440.78 66.0097Z" fill="#237AC7"/>
<path d="M334.461 538.15L346.921 539.71L347.291 540.43C346.097 541.136 344.811 541.674 343.471 542.03C341.357 542.185 339.234 542.185 337.121 542.03C334.701 542.02 333.701 540.9 334.461 538.15Z" fill="#247BC7"/>
<path d="M212.81 540.02C206.02 542.57 200.81 541.67 200.32 537.87C204.28 538.93 208.78 536.25 212.81 540.02Z" fill="#257BC7"/>
<path d="M144.199 510.08C135.199 511.37 132.929 511.79 132.969 505.22L144.199 510.08Z" fill="#247BC7"/>
<path d="M118.92 127.25C114.32 129.8 113.92 123.45 110.4 124.73C110.73 123.3 110.64 121.87 111.24 121.47C112.11 120.88 114.08 120.47 114.53 120.96C116.145 122.947 117.612 125.049 118.92 127.25Z" fill="#297EC9"/>
<path d="M33.8691 371.76C36.8691 370.66 38.0291 372.36 38.2391 374.92C38.4491 377.48 38.2391 380.09 38.2391 382.68C36.2991 382.51 34.0791 376.86 33.8691 371.76Z" fill="#297EC9"/>
<path d="M432.23 511.14C429.12 510.37 425.59 512.46 422.23 509.69C425.09 507.47 427.7 506.4 430.7 507.4C431.7 507.75 432.32 509.34 433.11 510.4L432.23 511.14Z" fill="#287DC8"/>
<path d="M511.201 436.61C511.551 433.43 509.001 430.22 511.281 426.55C513.861 429.04 515.281 431.55 514.731 434.55C514.521 435.61 513.031 436.41 512.131 437.34L511.201 436.61Z" fill="#287DC8"/>
<path d="M17.4206 233.07C17.5506 237.24 17.5406 240.86 14.0606 243.53C11.4406 238.76 12.2106 236.19 17.4206 233.07Z" fill="#287DC8"/>
<path d="M187.81 542.04L176.08 540.34L175.6 539.53C176.67 539.01 177.72 538.13 178.82 538.04C186.11 537.49 186.7 537.79 187.81 542.04Z" fill="#267CC8"/>
<path d="M316.801 21.6599C312.951 21.4299 308.801 23.0299 306.801 18.2199C310.241 15.6499 315.811 17.3999 316.801 21.6599Z" fill="#227AC7"/>
<path d="M92.8991 110.93C93.2291 113.54 92.3691 116.66 96.3591 115.42C96.5991 115.34 97.7091 116.69 97.5691 117.01C97.1329 118.178 96.3986 119.213 95.4391 120.01C94.7791 120.47 93.5491 120.1 92.3391 120.1C91.6891 117.34 91.0291 114.68 90.5391 111.99C91.2839 111.55 92.0755 111.194 92.8991 110.93Z" fill="#227AC7"/>
<path d="M51.1602 142.6V140.6C52.9502 141.32 53.6902 140.35 54.4702 138.88C55.5302 136.88 56.9101 135.12 58.2101 133.17C60.4301 134.94 57.3802 138.45 61.1102 138.8L59.8302 140.08C59.5102 139.8 59.0702 139.22 58.8902 139.3C56.2902 140.34 53.7002 141.48 51.1602 142.6Z" fill="#297EC9"/>
<path d="M506.191 138.98L509.491 138.72C510.131 141.82 510.771 144.87 511.421 148C507.701 148.28 506.011 145.14 506.191 138.98Z" fill="#2179C6"/>
<path d="M485.84 136.14C485.495 135.297 485.302 134.4 485.27 133.49C485.41 132.56 485.98 131.13 486.62 130.97C488.26 130.57 489.28 130.13 489.26 128.2C489.26 127.51 489.93 126.32 490.43 126.2C490.847 126.182 491.264 126.264 491.644 126.438C492.025 126.611 492.359 126.872 492.62 127.2C493.09 127.96 493.459 129.46 493.049 129.97C491.643 131.542 490.108 132.994 488.46 134.31C488.072 134.532 487.649 134.687 487.21 134.77L485.84 136.14Z" fill="#247BC7"/>
<path d="M464.06 468.95C462.76 462.6 464.06 459.78 468.17 459.88C469.13 464.5 467.82 467.4 464.06 468.95Z" fill="#2179C7"/>
<path d="M63.2798 435.28C62.9398 435.56 62.0698 436.78 61.5098 436.66C58.4398 435.95 58.7998 432.96 58.1798 430.74C58.0398 430.26 59.1798 428.97 59.8198 428.83C61.5298 428.47 63.3798 431.65 63.2798 435.28Z" fill="#2D81CA"/>
<path d="M361.039 536.52C359.649 534.62 358.089 533.32 358.329 532.65C358.859 531.12 360.279 529.9 361.329 528.55C362.179 529.81 363.569 531.02 363.719 532.36C363.839 533.4 362.379 534.57 361.039 536.52Z" fill="#2B7FC9"/>
<path d="M397.139 100.55C396.439 95.2395 398.579 92.7195 402.539 93.8595C402.699 96.4995 400.299 99.5195 397.139 100.55Z" fill="#247BC7"/>
<path d="M120.121 71.4004H121.631C121.631 71.5104 121.521 71.6204 121.541 71.7204C121.731 73.2504 122.541 75.8704 122.031 76.1204C119.901 77.2604 117.401 77.7204 114.721 78.5204C114.721 75.8404 115.381 74.5204 117.651 73.9604C118.631 73.7804 119.311 72.3404 120.121 71.4004Z" fill="#297EC9"/>
<path d="M363.851 30.5898C360.991 31.1298 358.421 31.7798 355.851 32.0398C354.587 31.9856 353.349 31.6617 352.221 31.0898C352.081 31.0398 352.221 29.5098 352.421 29.4498C353.617 29.1932 354.83 29.0228 356.051 28.9398C357.392 28.9135 358.729 28.7832 360.051 28.5498C362.571 27.8598 363.331 28.1898 363.851 30.5898Z" fill="#257CC8"/>
<path d="M8.59054 287.07C8.91054 291.94 9.16054 295.55 9.40054 299.15L8.18054 299.46C7.18054 296.14 6.12054 292.84 5.40054 289.46C5.30054 289.02 7.07054 288.17 8.59054 287.07Z" fill="#2B7FC9"/>
<path d="M248.091 535.45L257.301 533.72V537.1C253.961 538.21 250.801 538.88 247.971 536.62L248.091 535.45Z" fill="#2A7FC9"/>
<path d="M347.83 40.4902L344.83 36.4902H349.97C349.97 38.7202 350.1 40.9102 349.91 43.0702C349.658 44.0448 349.246 44.9708 348.69 45.8102C347.78 45.3302 346.34 45.0402 346.08 44.3202C345.78 43.4502 346.37 42.1902 346.77 41.1702C346.91 40.7902 347.61 40.6202 347.83 40.4902Z" fill="#2079C6"/>
<path d="M189.831 73.4002C185.771 73.5102 184.041 71.7602 183.491 68.8502C183.351 68.1302 183.981 66.6802 184.491 66.5702C184.968 66.4745 185.461 66.4946 185.929 66.6285C186.397 66.7625 186.826 67.0065 187.181 67.3402C188.202 69.2967 189.088 71.3215 189.831 73.4002Z" fill="#2B7FC9"/>
<path d="M483.7 428.4C484.38 431.4 484.18 432.84 481.38 433.14C480.15 433.27 479.13 434.79 477.87 435.32C476.851 435.576 475.797 435.664 474.75 435.58C475.15 434.63 475.28 433.27 476 432.79C478.36 431.17 480.92 429.92 483.7 428.4Z" fill="#227AC7"/>
<path d="M247.78 32.5498H252.03L250.36 39.0298L246.18 39.8198C246.7 37.3298 247.21 35.1598 247.78 32.5498Z" fill="#297EC8"/>
<path d="M41.7002 381.95L50.0102 393.57C46.1402 393.16 40.9602 385.86 41.7002 381.95Z" fill="#2E81CA"/>
<path d="M473.429 103C473.269 106.58 471.159 107.28 469.149 107.62C468.589 107.71 467.009 105.5 467.149 105.34C468.339 103.804 469.735 102.441 471.299 101.29C471.529 101.13 472.919 102.58 473.429 103Z" fill="#2179C7"/>
<path d="M313.831 29.7201C312.201 29.8189 310.567 29.7955 308.941 29.6501C308.171 29.5201 307.521 28.6501 306.811 28.1401C307.311 27.5301 307.701 26.7201 308.351 26.3601C309.161 25.9955 310.033 25.7885 310.921 25.7501C314.621 25.3301 314.961 25.7601 313.831 29.7201Z" fill="#2A7FC9"/>
<path d="M103.76 460.76C104.67 461.24 106.15 461.51 106.4 462.23C106.972 464.193 107.383 466.2 107.63 468.23C106.63 468.23 105 468.45 104.83 468.06C104.013 465.956 103.321 463.806 102.76 461.62L103.76 460.76Z" fill="#2B7FC9"/>
<path d="M494.789 444.96C494.789 441.49 496.639 440.66 502.959 440.9C504.089 444.36 503.159 445.49 499.809 445C498.139 444.87 496.461 444.857 494.789 444.96Z" fill="#2079C6"/>
<path d="M471.42 89.6904L472.85 89.7404C473.331 90.9521 473.693 92.2081 473.93 93.4904C474.02 94.4904 473.86 95.9404 473.22 96.4904C472.58 97.0404 470.48 96.6104 470.39 96.2604C470.159 94.9985 470.182 93.7031 470.46 92.4504C470.699 91.5044 471.02 90.5809 471.42 89.6904Z" fill="#267CC8"/>
<path d="M32.3097 266.24C34.0797 270.88 31.3997 272.07 28.7497 273.88C28.2497 272.39 26.9797 270.41 27.4897 269.69C28.5097 268.22 30.5097 267.4 32.3097 266.24Z" fill="#2A7FC9"/>
<path d="M367.52 41.2995C371.92 40.8295 372.59 41.8795 371.94 48.4895H368.52C368.18 46.0495 367.86 43.7695 367.52 41.2995Z" fill="#227AC7"/>
<path d="M30.4598 299.24C27.2898 296.86 27.4598 293.56 27.6998 290.16C31.2098 291.23 32.6998 296.04 30.4598 299.24Z" fill="#2A7FC9"/>
<path d="M140.59 519.01L146.23 528.01C140.95 528.79 139.22 526.4 140.59 519.01Z" fill="#267CC8"/>
<path d="M43.16 347.65C39.43 347.76 36.76 343.2 37.44 338.28C41.18 340.46 41.08 344.56 43.16 347.65Z" fill="#2A7FC9"/>
<path d="M433.971 51.85C433.391 50.4419 432.958 48.9774 432.681 47.48C432.591 46.61 433.401 45.66 433.811 44.75C434.811 45.25 436.161 45.5 436.691 46.3C437.465 47.7918 438.072 49.3647 438.501 50.99L434.191 51.99L433.971 51.85Z" fill="#227AC7"/>
<path d="M68.5809 108.83L65.2409 112.04C64.3509 110.88 63.0109 109.83 62.6709 108.53C62.5298 108.125 62.4996 107.69 62.5836 107.27C62.6676 106.849 62.8626 106.459 63.1484 106.14C63.4342 105.82 63.8003 105.583 64.2087 105.453C64.6172 105.323 65.053 105.305 65.4709 105.4C66.4409 105.55 67.1809 107.21 68.5809 108.83Z" fill="#227AC7"/>
<path d="M80.5002 109.33C80.318 111.356 79.9668 113.363 79.4502 115.33C79.2102 116 77.7102 116.6 76.8202 116.55C76.2902 116.55 75.4702 115.22 75.3902 114.42C75.0902 111.66 77.1502 109.4 80.5002 109.33Z" fill="#2079C6"/>
<path d="M542.14 183.58C541.14 185.92 544.14 189.34 539.79 190.06C539.14 190.17 537.44 187.92 537.35 186.68C537.15 183.94 538.82 182.71 542.14 183.58Z" fill="#227AC7"/>
<path d="M86.5494 457.22C91.0894 458.93 92.5494 460.57 92.6594 464.22C88.5094 463.8 86.5094 461.53 86.5494 457.22Z" fill="#2B7FC9"/>
<path d="M148.699 508.92L151.059 508.35C151.849 512 152.599 515.41 153.339 518.81L152.769 519.48C151.929 518.73 150.599 518.12 150.329 517.2C149.645 514.469 149.101 511.706 148.699 508.92Z" fill="#267CC8"/>
<path d="M96.2308 426.48C92.1308 426.22 89.6608 424.27 89.0508 421.01C93.2908 420.4 94.6408 421.4 96.2308 426.48Z" fill="#287DC8"/>
<path d="M71.3107 422.31C71.1407 425.05 71.0507 427.71 67.8307 428.86C65.0207 424.16 65.9707 422.4 71.3107 422.31Z" fill="#3082CA"/>
<path d="M153.53 520.48C154.53 522.36 155.79 523.81 155.53 524.19C154.614 525.417 153.389 526.38 151.98 526.98C151.65 527.11 149.66 524.98 149.88 524.42C150.37 523.18 151.7 522.29 153.53 520.48Z" fill="#297EC9"/>
<path d="M346.181 11.8001C346.001 14.5401 345.991 16.4201 345.681 18.2601C345.557 18.6041 345.346 18.91 345.068 19.1479C344.791 19.3858 344.456 19.5474 344.097 19.617C343.738 19.6866 343.367 19.6617 343.021 19.5448C342.674 19.4279 342.364 19.2229 342.121 18.9501C341.741 18.2901 341.661 16.6601 341.921 16.5501C344.041 15.6301 342.921 14.1001 343.011 12.7001C343.011 12.0201 344.011 10.7901 344.441 10.8301C345.1 10.9838 345.703 11.3199 346.181 11.8001Z" fill="#2079C6"/>
<path d="M138.121 524.86C134.591 527.1 132.331 526.56 130.311 524.86C130.032 524.622 129.81 524.323 129.663 523.987C129.516 523.651 129.447 523.286 129.461 522.92C129.634 522.619 129.883 522.369 130.183 522.193C130.483 522.018 130.823 521.924 131.171 521.92C133.311 522.61 135.351 523.62 138.121 524.86Z" fill="#2B7FC9"/>
<path d="M61.1997 124.96C60.9997 128.67 58.4997 130.45 54.6797 129.79C55.5097 125.54 56.4697 124.79 61.1997 124.96Z" fill="#297EC8"/>
<path d="M383.219 533.671C382.127 534.32 380.962 534.84 379.749 535.221C377.549 535.641 377.319 533.681 377.619 532.451C377.859 531.451 379.279 529.981 380.099 530.031C381.209 530.091 382.249 531.401 383.329 532.181L383.219 533.671Z" fill="#2A7FC9"/>
<path d="M34.7001 401.73C37.7601 403.84 38.9701 406.35 38.1401 409.81C34.3201 408.72 33.0901 405.96 34.7001 401.73Z" fill="#3082CA"/>
<path d="M339.6 51.4797C338.386 49.9083 337.308 48.2355 336.38 46.4797C336.28 46.2597 338.64 44.4197 338.98 44.6497C340.291 45.5874 341.383 46.7986 342.18 48.1997C342.36 48.5297 341.03 49.7197 339.6 51.4797Z" fill="#247BC7"/>
<path d="M101.1 67.7001L108.1 61.6201L109.1 68.1001L101.1 67.7001Z" fill="#297EC9"/>
<path d="M176.049 547.87C170.209 548.55 170.049 543.41 166.939 541.68L167.329 540.93H171.449C169.379 545.34 174.229 545.4 176.049 547.87Z" fill="#3082CA"/>
<path d="M177.279 44.1997C182.009 42.2997 184.019 43.0997 184.529 47.1997C181.879 46.6997 178.379 49.0397 177.279 44.1997Z" fill="#287DC8"/>
<path d="M229.26 27.8903C234.89 27.5603 235.18 27.7603 235.69 32.0703C230.83 32.8903 230.15 32.4603 229.26 27.8903Z" fill="#297EC9"/>
<path d="M266.699 36.4598L263.299 38.0198C262.169 35.7098 263.189 32.4198 259.799 31.6898C259.659 31.6898 259.799 30.5699 259.739 29.9699C260.449 30.0199 261.499 29.7798 261.819 30.1598C263.509 32.0798 264.969 34.1498 266.699 36.4598Z" fill="#2D81CA"/>
<path d="M22.4394 287.17C22.2494 283.67 22.0594 280.17 21.8594 276.33C25.3794 277.9 25.5794 280.17 23.4194 287L22.4394 287.17Z" fill="#2E81CA"/>
<path d="M55.0506 380.27C56.9206 380.86 59.7705 378.63 60.5105 382.09C60.7305 383.09 59.4105 384.4 58.7905 385.56L54.3105 381.12L55.0506 380.27Z" fill="#287DC8"/>
<path d="M446.039 512.66C447.399 514.08 448.849 514.9 448.869 515.75C448.869 518.32 446.699 518.58 444.799 518.48C443.969 518.43 443.179 517.48 442.369 516.89L446.039 512.66Z" fill="#237AC7"/>
<path d="M1.64062 281.67C-0.599375 278.15 -0.549381 277.25 1.83062 274.53C4.96062 276.49 4.93062 279.7 1.64062 281.67Z" fill="#2E81CA"/>
<path d="M78.3105 461.4L81.3105 458.4C82.3248 459.617 83.2127 460.934 83.9605 462.33C84.0905 462.64 82.3005 464.41 81.8505 464.25C80.7505 463.89 79.8605 462.76 78.3105 461.4Z" fill="#2A7FC9"/>
<path d="M116.17 101.49L117.81 93.7998L120.9 100.4L116.17 101.49Z" fill="#2D81CA"/>
<path d="M215.85 530.86L222.72 529.67L223.44 530.67C222.72 531.61 222.2 532.89 221.25 533.44C219.06 534.72 217.34 533.44 215.82 532.06L215.85 530.86Z" fill="#2B7FC9"/>
<path d="M74.1505 444.14C70.8505 444.14 68.8505 443.2 68.8105 440.14C68.8105 439.57 69.8905 438.41 70.2905 438.49C73.2205 439.02 73.4905 441.52 74.1505 444.14Z" fill="#3082CA"/>
<path d="M430.881 117.6C433.881 115.82 435.751 115.13 436.381 117.93C436.701 119.39 435.981 121.09 435.741 122.67C434.241 121.11 432.701 119.54 430.881 117.6Z" fill="#2079C6"/>
<path d="M441.47 90.7702L447.53 89.2402C447.82 91.9102 446.71 94.4802 444.53 95.0102C442.2 95.5902 440.88 93.5002 441.47 90.7702Z" fill="#227AC7"/>
<path d="M162.63 509.2C163.58 510.78 165 512.08 164.87 513.2C164.74 514.32 163 515.12 161.87 516.11C159.23 513.57 160.03 511.71 162.63 509.2Z" fill="#2E81CA"/>
<path d="M398.38 35.4002C398.38 34.0202 397.93 32.1802 400.48 33.1002C401.82 34.0102 403.17 34.9002 404.48 35.9002C404.56 35.9702 403.84 37.4102 403.68 37.3702C402.164 37.0007 400.668 36.5501 399.2 36.0202C398.86 35.8802 398.64 35.5702 398.38 35.4002Z" fill="#287DC8"/>
<path d="M346.83 7.68021C351.95 5.90021 354.23 6.68022 354.58 11.5102L346.52 8.74021L346.83 7.68021Z" fill="#247BC7"/>
<path d="M191.18 518.81C189.8 518.67 188.08 518.98 187.18 518.26C186.45 517.69 186.56 515.86 186.59 514.6C186.59 514.29 188.14 513.6 188.36 513.79C189.596 514.98 190.768 516.235 191.87 517.55L191.18 518.81Z" fill="#2E81CA"/>
<path d="M205.391 34.7402C205.519 33.4718 205.798 32.223 206.221 31.0202C206.786 30.0409 207.574 29.2084 208.521 28.5902C208.751 28.4202 210.051 29.0502 210.041 29.2902C210.041 30.5602 210.041 32.0402 209.401 33.0102C208.761 33.9802 207.341 34.5002 206.261 35.2102L205.391 34.7402Z" fill="#257CC8"/>
<path d="M224.471 68.7402C224.041 71.7402 224.211 74.5302 221.471 77.1202L220.471 68.9402L224.471 68.7402Z" fill="#297EC9"/>
<path d="M508.561 167.29C507.071 165.4 505.751 164.42 505.561 163.29C505.431 162.5 506.921 161.46 507.691 160.54C508.89 161.475 509.956 162.568 510.861 163.79C511.111 164.18 509.781 165.5 508.561 167.29Z" fill="#2079C6"/>
<path d="M58.6994 338.88C57.9694 341.69 57.2294 344.49 56.3894 347.7H55.1994C55.0799 345.227 55.1167 342.748 55.3094 340.28C55.4194 339.43 56.7694 338.73 57.5594 337.97L58.6994 338.88Z" fill="#267CC8"/>
<path d="M44.0409 215.46L35.9609 213.73C36.8809 212.81 37.9009 211.14 38.5409 211.28C40.6448 211.875 42.6873 212.668 44.6409 213.65L44.0409 215.46Z" fill="#2E81CA"/>
<path d="M26.2504 314.33C25.4929 312.805 24.8737 311.216 24.4004 309.58C24.2704 309 25.2504 307.76 25.9304 307.58C26.3602 307.621 26.7715 307.775 27.1228 308.026C27.474 308.277 27.7526 308.617 27.9304 309.01C28.104 310.711 28.1375 312.424 28.0304 314.13L26.2504 314.33Z" fill="#2D81CA"/>
<path d="M89.9606 490.51C89.3506 489.89 88.3806 489.35 88.2106 488.63C87.8806 487.19 87.4606 485.37 88.0706 484.24C88.6806 483.11 90.5906 482.87 90.9206 484.99C91.0624 486.613 91.0791 488.244 90.9706 489.87L89.9606 490.51Z" fill="#257CC8"/>
<path d="M348.701 521.92V530.63H349.401C348.113 529.296 346.916 527.876 345.821 526.38C343.931 523.52 346.591 523.19 348.701 521.92Z" fill="#3384CB"/>
<path d="M156.311 539.4C152.641 539.31 151.061 537.4 150.211 534.46C154.461 533.69 154.971 534.08 156.311 539.4Z" fill="#3082CA"/>
<path d="M490.559 109.97C492.349 110.65 494.169 111.26 495.889 112.09C496.119 112.2 495.889 114.01 495.719 114.09C494.179 114.41 492.439 114.92 491.069 114.46C490.309 114.21 490.139 112.21 489.699 111L490.559 109.97Z" fill="#2079C6"/>
<path d="M356.021 44.5197C355.941 41.7397 359.471 40.0598 363.611 40.6698C363.701 43.2598 360.981 44.6797 356.021 44.5197Z" fill="#2079C6"/>
<path d="M173.851 40.7305C173.301 43.9205 172.851 46.2505 172.491 48.5905L171.491 48.3905L168.811 42.2005L173.851 40.7305Z" fill="#267CC8"/>
<path d="M9.17078 231.45C9.07928 229.353 9.11936 227.252 9.29077 225.16C9.29077 224.83 11.4508 224.24 11.8308 224.6C13.1808 225.87 11.7008 230.1 9.17078 231.45Z" fill="#3082CA"/>
<path d="M20.5803 261.25C19.4603 259.48 18.3904 258.37 18.1104 257.09C17.9904 256.53 19.4803 255.61 20.2403 254.86C21.1723 256.043 21.9893 257.312 22.6803 258.65C22.8303 259.02 21.7003 259.93 20.5803 261.25Z" fill="#2A7FC9"/>
<path d="M242.32 551.73C244.96 548.47 247.39 551.47 250.01 551.73C248.01 555.21 245.79 555.15 242.32 551.73Z" fill="#2B7FC9"/>
<path d="M144.77 72.9601L135.52 71.0201V70.5801L143.83 68.8701C144.3 70.0401 144.83 71.2401 145.28 72.4401L144.77 72.9601Z" fill="#2B7FC9"/>
<path d="M42.6992 267.74C45.0492 268.12 46.9192 272.6 46.6992 276.96C43.6992 274.4 43.1792 271.33 42.6992 267.74Z" fill="#2A7FC9"/>
<path d="M463.96 504.29C463.31 499.73 463.69 499.29 468.04 499.03C468.97 502.53 467.86 504.03 463.96 504.29Z" fill="#237BC7"/>
<path d="M141.699 85.8399C142.059 84.6699 142.089 83.1699 142.859 82.3899C143.629 81.6099 145.269 81.2199 146.519 80.6699L147.519 81.9899L143.319 86.6899L141.699 85.8399Z" fill="#2E81CA"/>
<path d="M260.23 59.6797C263.01 58.6197 264.53 59.9897 265.23 62.3597C265.38 62.8497 264.15 64.3597 263.71 64.3597C261.13 63.9797 260.23 62.1397 260.23 59.6797Z" fill="#2A7FC9"/>
<path d="M78.3296 150.46C81.1596 150.04 82.3796 151.46 82.0096 153.85C81.8596 154.79 80.3296 155.51 79.4296 156.32C78.8928 155.502 78.4721 154.614 78.1796 153.68C78.1055 152.604 78.1558 151.524 78.3296 150.46Z" fill="#297EC9"/>
<path d="M57.4691 157.14C55.6291 153.74 58.2891 152.59 59.9391 150.84C62.2891 154.06 61.8491 155.22 57.4691 157.14Z" fill="#2D81CA"/>
<path d="M5.26984 230.48C8.00984 235.11 7.59984 237.55 3.58984 240.87C4.17984 237.2 4.69984 234.3 5.26984 230.48Z" fill="#2E81CA"/>
<path d="M57.6097 167.4C53.3197 166.51 55.0197 163.27 54.4297 161.03C57.5697 160.4 58.2397 161.68 57.6097 167.4Z" fill="#267CC8"/>
<path d="M456.76 425.4C457.34 429.55 456.25 431.09 452.67 431.49C452.3 427.19 453.03 426.06 456.76 425.4Z" fill="#227AC7"/>
<path d="M32.6997 354.69C33.2497 356.69 34.6097 358.89 31.6997 359.9C31.1497 360.09 29.4397 358.71 29.2997 357.9C28.8397 355.53 30.3897 354.67 32.6997 354.69Z" fill="#2B7FC9"/>
<path d="M322.16 546.18C321.001 545.254 319.905 544.252 318.88 543.18C318.325 542.306 317.869 541.373 317.52 540.4C318.38 540.03 319.33 539.26 320.09 539.4C320.549 539.537 320.969 539.78 321.317 540.111C321.664 540.441 321.929 540.848 322.09 541.3C322.267 542.92 322.291 544.554 322.16 546.18Z" fill="#2079C6"/>
<path d="M9.13025 281.47C8.98025 281.42 8.85025 281.47 8.80025 281.36C7.16025 279.42 6.80025 275.86 8.21025 274.8C8.58025 274.53 9.77025 274.6 9.86025 274.8C10.8503 277.15 11.2502 279.47 9.13025 281.47Z" fill="#2D81CA"/>
<path d="M278.301 545.02C276.161 544.32 273.361 546.36 273.041 542.79C272.981 542.16 274.361 540.89 275.191 540.79C277.851 540.47 278.591 542.12 278.301 545.02Z" fill="#2079C6"/>
<path d="M483.749 117.63C480.669 116.81 478.309 115.78 478.479 112.22C482.139 111.86 484.119 113.78 483.749 117.63Z" fill="#2079C6"/>
<path d="M244.53 542.4C241.44 542.12 237.36 537.56 238.26 534.84L244.53 542.4Z" fill="#2D81CA"/>
<path d="M285.161 547.47C287.061 547.87 289.611 545.73 290.331 549.08C290.471 549.72 288.981 551.39 288.151 551.46C285.621 551.69 284.701 550.13 285.161 547.47Z" fill="#2079C6"/>
<path d="M23.4307 270.79C20.7007 271.6 19.2307 270.63 18.9907 268.16C18.9307 267.65 19.9907 266.53 20.5007 266.53C23.1907 266.55 23.6007 268.4 23.4307 270.79Z" fill="#2D81CA"/>
<path d="M191.471 49.1898C194.801 45.9398 197.681 45.4398 198.951 48.4198L191.701 50.2398L191.471 49.1898Z" fill="#267CC8"/>
<path d="M174.611 72.0303C172.061 73.7203 170.301 74.0303 169.321 72.1003C168.971 71.4003 170.131 69.9403 170.601 68.8203L174.611 72.0303Z" fill="#2D81CA"/>
<path d="M254.6 56.4001C251.01 58.1801 250.41 53.7101 247.6 53.4001C248.226 52.9709 248.951 52.707 249.707 52.6329C250.464 52.5587 251.226 52.6767 251.924 52.976C252.622 53.2752 253.234 53.746 253.702 54.3446C254.169 54.9432 254.478 55.6502 254.6 56.4001Z" fill="#2A7FC9"/>
<path d="M464.58 86.4C464.87 88.05 465.17 89.71 465.47 91.4L464.47 92.04C463.61 90.94 462.47 89.95 462.02 88.7C461.8 88.04 462.86 86.94 463.34 86.04L464.58 86.4Z" fill="#267CC8"/>
<path d="M434.189 52.0403L437.369 56.3803C432.519 57.1803 431.659 56.6304 431.369 52.8604L434.009 51.8604L434.189 52.0403Z" fill="#2079C6"/>
<path d="M391.129 512.25C390.809 510.95 390.549 509.88 390.189 508.44L394.089 507.53C394.419 510.12 395.009 512.45 391.129 512.25Z" fill="#2D81CA"/>
<path d="M291.151 521.86L292.051 524.57L287.801 526.48C286.701 522.71 287.291 521.99 291.151 521.86Z" fill="#2179C6"/>
<path d="M308.909 540.98L311.369 543.73C310.526 544.58 309.57 545.31 308.529 545.9C308.229 546.03 306.769 544.63 306.799 543.98C306.839 543.16 307.859 542.4 308.909 540.98Z" fill="#257BC7"/>
<path d="M490.76 151.4C490.18 153.58 489.76 155.07 489.39 156.56L488.18 156.5C487.76 155.13 487.34 153.77 486.84 152.1L490.76 151.4Z" fill="#297EC8"/>
<path d="M405.701 490.09V493.28L401.271 494.28C400.541 490.4 403.101 490.51 405.701 490.09Z" fill="#2D81CA"/>
<path d="M27.2493 329.19C29.8193 330.73 29.1393 332.63 28.2493 334.46C28.0313 334.632 27.7806 334.758 27.5125 334.831C27.2443 334.903 26.9643 334.92 26.6893 334.88C25.4993 332.94 25.2693 331.01 27.2493 329.19Z" fill="#2B7FC9"/>
<path d="M231.3 44.27L236.13 43L236.85 44C235.97 45 235.26 46.36 234.16 46.81C233.41 47.12 232.16 46.15 231.09 45.75L231.3 44.27Z" fill="#3384CB"/>
<path d="M194.84 532.71C192.34 531.79 189.66 532.19 189.43 528.82C192.56 527.76 193.94 529.31 194.84 532.71Z" fill="#3384CB"/>
<path d="M85.3691 411.06C89.0391 410.06 89.8791 411.58 90.0891 413.51C90.1491 414.01 89.0891 414.63 88.5291 415.2L85.3691 411.06Z" fill="#3384CB"/>
<path d="M463.699 493.33C463.899 490.08 465.489 489.06 468.349 489.65C468.369 493.26 467.819 493.71 463.699 493.33Z" fill="#247BC7"/>
<path d="M192.791 54.29C192.631 57.53 190.921 57.99 189.131 57.78C188.701 57.72 188.471 56.03 188.131 55.09L192.791 54.29Z" fill="#2E81CA"/>
<path d="M237.45 8.26008C235.8 7.06008 233.36 10.4701 231.65 6.53008C233.71 6.14008 235.45 5.73008 237.22 5.58008C237.46 5.58008 237.8 6.93008 238.1 7.65008L237.45 8.26008Z" fill="#2D81CA"/>
<path d="M447.319 466.61H443.799L443.039 465.88C443.849 464.95 444.659 464.02 445.459 463.08L448.019 465.85C447.789 466.1 447.559 466.4 447.319 466.61Z" fill="#267CC8"/>
<path d="M9.30078 342.47L10.2308 335.99L11.9508 336.07V342.52L9.30078 342.47Z" fill="#E0ECF7"/>
<path d="M31.8602 318.6L34.9802 325.06C30.7602 324.2 29.9602 322.61 31.8602 318.6Z" fill="#2D81CA"/>
<path d="M111.271 457.29C115.061 457.08 115.061 457.08 114.931 460.93C111.701 461.87 111.091 460.17 111.271 457.29Z" fill="#297EC8"/>
<path d="M145.25 482.4L138.98 477.15L140.22 475.71L146.16 481.48L145.25 482.4Z" fill="#2B7FC9"/>
<path d="M373.35 68.5895C369.16 68.8895 369.04 68.7695 369.53 65.0595C373.42 64.5195 373.58 64.6695 373.35 68.5895Z" fill="#2079C6"/>
<path d="M266.701 550.2L261.471 548.02C262.051 547.38 262.531 546.3 263.201 546.17C265.461 545.72 266.841 546.68 266.701 550.2Z" fill="#247BC7"/>
<path d="M272.311 3.57956C272.761 -0.350437 275.001 -0.240435 277.821 0.229565C277.331 3.64956 274.701 2.99956 272.311 3.57956Z" fill="#287DC8"/>
<path d="M299.07 552.13C298.13 551.13 297.56 550.5 297 549.88C297.75 549.29 298.45 548.34 299.26 548.24C299.88 548.16 300.64 549.14 301.34 549.65L299.07 552.13Z" fill="#297EC8"/>
<path d="M266.391 557.48L261.391 555.48C262.241 554.83 263.111 553.62 263.931 553.65C265.511 553.74 267.901 553.73 266.391 557.48Z" fill="#227AC7"/>
<path d="M501.481 151.21C503.321 151.02 505.421 149.97 505.981 152.81C506.111 153.44 505.191 154.94 504.831 154.91C502.761 154.75 501.391 153.67 501.481 151.21Z" fill="#267CC8"/>
<path d="M325.799 40.7097L320.799 38.9597L320.529 38.0597C321.529 37.5297 322.799 36.3597 323.529 36.6297C324.779 37.0797 325.699 38.4297 326.749 39.4097L325.799 40.7097Z" fill="#237AC7"/>
<path d="M75.5197 456.83C73.7397 455.09 72.4297 453.83 70.6797 452.13C75.8297 451.45 76.3897 451.95 75.5197 456.83Z" fill="#297EC8"/>
<path d="M397.11 62.4801C395.2 58.4301 397.76 57.9001 399.29 56.9001C399.55 56.7401 400.52 57.6701 401.16 58.1001C399.94 59.4001 398.7 60.7501 397.11 62.4801Z" fill="#2079C6"/>
<path d="M206.359 63.9096C207.179 62.9096 207.999 61.8496 208.809 60.8096L210.859 62.8096L207.699 65.2696L206.359 63.9096Z" fill="#3384CB"/>
<path d="M462.891 117.33H467.951L468.681 118.1L465.391 121.4C464.701 120.22 463.961 119.07 462.891 117.33Z" fill="#2079C6"/>
<path d="M290.279 560.94H295.359L296.029 561.73L292.439 564.85C291.839 563.76 291.229 562.67 290.279 560.94Z" fill="#227AC7"/>
<path d="M105.23 102.98C106.014 101.872 106.866 100.813 107.78 99.8103C107.89 99.7103 109.03 100.63 109.69 101.08L106.98 104.34L105.23 102.98Z" fill="#2B7FC9"/>
<path d="M92.3104 478.17L95.7004 480.47L94.2004 482.62L91.1504 479.62L92.3104 478.17Z" fill="#2B7FC9"/>
<path d="M331.189 33.3096L336.909 34.1196C336.599 34.8596 336.439 36.1196 335.959 36.2396C334.039 36.7996 332.249 36.5496 331.189 33.3096Z" fill="#227AC7"/>
<path d="M257.8 28.2395L252.43 25.4795L252.96 24.4795C255.2 24.2995 257.94 23.2195 257.8 28.2395Z" fill="#297EC8"/>
<path d="M484.18 183.85C487.56 183.13 489.18 183.63 489.3 185.85C489.3 186.37 487.3 187.59 487.17 187.45C486.066 186.343 485.065 185.138 484.18 183.85Z" fill="#2179C7"/>
<path d="M515.31 186.69C514.241 185.892 513.238 185.009 512.31 184.05C512.2 183.91 513.31 182.76 513.81 182.05L516.81 185.05L515.31 186.69Z" fill="#257BC7"/>
<path d="M472.459 158.93C469.049 159.04 468.769 158.74 468.689 155.2C471.829 154.34 472.979 155.6 472.459 158.93Z" fill="#2079C6"/>
<path d="M155.77 89.9697L156.82 86.3896C157.68 86.6396 159.11 86.6596 159.33 87.1896C160.33 89.6296 158.25 89.7697 155.77 89.9697Z" fill="#2E81CA"/>
<path d="M29.5995 251.99L30.7995 255.99L28.6695 256.53L27.7695 252.53L29.5995 251.99Z" fill="#3384CB"/>
<path d="M84.8203 111.9C85.5403 108.07 85.8203 107.84 89.6003 108.17C89.2803 110.93 87.9503 112.24 84.8203 111.9Z" fill="#2079C6"/>
<path d="M333.4 58.6698C331.57 59.4398 330.64 60.1998 329.84 60.0798C329.04 59.9598 328.28 58.9898 327.5 58.3898C328.36 57.7698 329.18 56.7598 330.1 56.6598C330.84 56.5798 331.7 57.5798 333.4 58.6698Z" fill="#237AC7"/>
<path d="M226.189 78.9801L230.189 77.0801C230.474 77.8149 230.715 78.5663 230.909 79.3301C229.601 79.8742 228.266 80.3515 226.909 80.7601L226.189 78.9801Z" fill="#3384CB"/>
<path d="M512.371 134.4C508.521 135.72 508.551 133.4 508.301 131.88C508.221 131.41 509.441 130.73 510.071 130.15C510.791 131.51 511.521 132.84 512.371 134.4Z" fill="#2079C6"/>
<path d="M182.31 72.5199C181.2 73.2599 180.15 74.3199 178.94 74.5799C178.42 74.6899 177.55 73.1199 176.26 71.6699H181.84L182.31 72.5199Z" fill="#297EC9"/>
<path d="M192.049 538.79L196.049 541.01C195.619 541.54 194.999 542.59 194.789 542.51C193.501 541.978 192.248 541.363 191.039 540.67L192.049 538.79Z" fill="#2E81CA"/>
<path d="M267.701 45.3096C269.121 48.9096 266.801 48.7296 265.461 48.9996C264.981 49.0996 264.241 47.9996 263.631 47.3896L267.701 45.3096Z" fill="#3384CB"/>
<path d="M92.0391 129.21L88.8091 132.08C88.4091 131.35 87.5291 130.08 87.6891 129.97C88.6801 129.115 89.7442 128.349 90.8691 127.68L92.0391 129.21Z" fill="#3A88CD"/>
<path d="M96.5799 445.96C97.7399 447.37 98.9099 448.77 100.07 450.17C96.3199 450.82 95.5999 449.07 96.5799 445.96Z" fill="#3A88CD"/>
<path d="M171.57 525.12C174.77 524.12 176.44 524.47 177.11 526.74C177.23 527.15 176.4 527.84 176.01 528.41L171.57 525.12Z" fill="#287DC8"/>
<path d="M353.99 517.66C353.94 516.66 353.89 515.66 353.84 514.66L356.73 513.78C358.34 516.64 358.07 517.03 353.99 517.66Z" fill="#3082CA"/>
<path d="M37.6997 316.99L35.9297 311.92C39.4097 311.57 39.4097 311.57 38.8297 316.62L37.6997 316.99Z" fill="#287DC8"/>
<path d="M501.749 137.85C498.379 138.85 497.299 137.85 497.419 135.78C497.419 135.05 498.369 134.38 498.879 133.68L501.749 137.85Z" fill="#257BC7"/>
<path d="M71.0004 110.74C70.1604 108.47 70.8604 107.12 72.8904 106.84C73.3216 106.922 73.7242 107.114 74.0589 107.398C74.3937 107.682 74.6491 108.048 74.8004 108.46C74.8304 111.32 72.6404 110.48 71.0004 110.74Z" fill="#247BC7"/>
<path d="M129.75 80.2603L132.39 76.5703L133.39 76.9403C133.55 77.9403 134.19 79.4903 133.78 79.8703C132.95 80.6203 131.54 80.7403 130.37 81.1303L129.75 80.2603Z" fill="#3A88CD"/>
<path d="M425.31 65.6097C428.88 65.2297 429.66 66.0797 429.03 69.6097C426.64 69.3197 424.83 68.5797 425.31 65.6097Z" fill="#2079C6"/>
<path d="M216.701 500.32H220.151V505.17L216.061 501.17C216.311 500.88 216.531 500.6 216.701 500.32Z" fill="#267CC8"/>
<path d="M414.051 88.1197C410.921 88.9497 409.411 88.3097 409.831 84.9697H413.701C413.791 85.9897 413.911 86.9397 414.051 88.1197Z" fill="#2079C6"/>
<path d="M30.2507 369.87C26.3907 370.79 27.5307 367.69 26.4707 365.22C29.5707 365.96 29.9207 367.79 30.2507 369.87Z" fill="#3082CA"/>
<path d="M41.539 246.92V251.92L40.539 252.26C40.019 251.06 39.199 249.89 39.109 248.66C39.059 247.95 40.179 247.15 40.769 246.4L41.539 246.92Z" fill="#287DC8"/>
<path d="M371.48 528C371.19 523.38 373.91 524.3 375.72 523.92L376.31 524.77L371.48 528Z" fill="#3082CA"/>
<path d="M258.599 18.2402L262.679 19.1102L263.049 19.9102C262.049 20.4702 260.989 21.5902 260.159 21.4302C259.329 21.2702 258.609 19.8702 257.859 19.0102L258.599 18.2402Z" fill="#3384CB"/>
<path d="M106.921 115.7C107.001 114.7 106.731 113.32 107.231 112.94C108.231 112.23 109.601 112.11 110.821 111.75L111.381 112.75L108.001 115.96L106.921 115.7Z" fill="#297EC8"/>
<path d="M205 532.2V527.4L208 527.15C208.07 528.07 208.44 529.02 208.12 529.49C207.57 530.4 206.57 530.92 205 532.2Z" fill="#247BC7"/>
<path d="M353.701 542.2C354.561 545.72 352.441 545.51 350.341 545.34C349.701 542.4 349.701 542.33 353.701 542.2Z" fill="#257CC8"/>
<path d="M48.5898 318.21L50.7999 314.21C51.2999 314.55 52.2898 315.07 52.2298 315.21C51.7198 316.61 51.0399 317.94 50.4099 319.29L48.5898 318.21Z" fill="#267CC8"/>
<path d="M493.92 427.64C494.92 427.31 496.02 426.64 497.02 426.76C497.66 426.76 498.79 428.14 498.65 428.58C498.141 429.593 497.465 430.513 496.65 431.3C496.09 430.64 495.52 429.99 494.95 429.3L493.92 427.64Z" fill="#247BC7"/>
<path d="M346.78 61.9601H342.01C343.32 60.3801 344.16 58.6801 344.8 58.7501C345.8 58.8601 346.75 60.1501 347.72 60.9401L346.78 61.9601Z" fill="#2079C6"/>
<path d="M363.77 57.8203L367.86 56.8203C368.05 57.6703 368.25 58.5203 368.44 59.3703L364.13 59.8203L363.77 57.8203Z" fill="#2079C6"/>
<path d="M487.17 445.13C487.3 446.69 487.38 447.64 487.52 449.27C486.201 449.059 484.901 448.748 483.63 448.34C483.48 448.08 483.385 447.793 483.353 447.495C483.32 447.197 483.35 446.896 483.44 446.61C484.645 446.026 485.892 445.531 487.17 445.13Z" fill="#2079C6"/>
<path d="M130.24 47.2002L134.76 44.2002L135.54 44.8002L134.65 48.6202L130.24 47.2002Z" fill="#287DC8"/>
<path d="M431.98 481.05L435.37 476.65C436.7 480.98 436.04 482.04 431.98 481.05Z" fill="#227AC7"/>
<path d="M59.8195 140.07L61.0995 138.79L64.2795 137.35L64.7895 138.25L59.9695 142.46L59.2695 141.96L59.8195 140.07Z" fill="#297EC8"/>
<path d="M364.219 88.9502C362.839 89.6302 361.999 90.4101 361.349 90.2701C360.519 90.0901 359.849 89.1702 359.109 88.5702C359.859 87.8602 360.569 86.6402 361.349 86.5702C362.129 86.5002 362.869 87.7702 364.219 88.9502Z" fill="#227AC7"/>
<path d="M41.051 152.16L40.551 153.16L38.271 154.43C37.521 151.51 37.581 151.43 41.791 149.38L41.051 152.16Z" fill="#267CC8"/>
<path d="M445.529 110.13C447.829 109.31 449.629 108.68 449.529 111.23C449.529 111.93 448.529 112.59 448.039 113.23C447.169 112.23 446.349 111.18 445.529 110.13Z" fill="#2079C6"/>
<path d="M488.331 177.21C487.467 176.384 486.692 175.469 486.021 174.48C485.911 174.29 487.141 173.32 487.761 172.71L490.001 175.86L488.331 177.21Z" fill="#267CC8"/>
<path d="M118.35 490C120.98 487.87 122.26 488.08 122.97 490C123.14 490.47 122.58 491.21 122.35 491.84L118.35 490Z" fill="#3A88CD"/>
<path d="M225.479 540.25C224.792 541.127 223.968 541.887 223.039 542.5C222.709 542.66 221.739 541.5 221.039 540.94L224.319 538.94L225.479 540.25Z" fill="#2D81CA"/>
<path d="M341.31 75.9404C342.23 77.3304 343.17 78.1304 343.05 78.7104C342.88 79.5104 341.9 80.1404 341.27 80.8504C340.73 80.1704 339.82 79.5304 339.74 78.7904C339.66 78.0504 340.48 77.4004 341.31 75.9404Z" fill="#267CC8"/>
<path d="M396.45 79.5898H401.04L398.82 83.3198L395.82 80.3198L396.45 79.5898Z" fill="#2179C7"/>
<path d="M483.01 126.73C482.7 126.822 482.382 126.885 482.06 126.92C481.29 126.92 480.51 126.92 478.82 126.92L480.56 123.31L483.7 125.84L483.01 126.73Z" fill="#227AC7"/>
<path d="M500.271 149.18C498.351 148.55 495.961 148.89 496.831 145.9C500.361 145.34 500.701 145.66 500.271 149.18Z" fill="#257CC8"/>
<path d="M54.0009 174.4L57.0609 176.83L54.7009 179.63L53.9609 179.15L54.0009 174.4Z" fill="#2D81CA"/>
<path d="M388.901 64.8396C387.641 62.1896 388.281 60.9896 390.211 60.8396C390.871 60.7796 391.621 61.7296 392.331 62.2296L388.901 64.8396Z" fill="#2079C6"/>
<path d="M145.24 72.3996L149.24 72.1396L149.88 72.7596C149.04 73.5996 148.24 75.0496 147.36 75.0996C146.48 75.1496 145.61 73.7096 144.74 72.9196L145.24 72.3996Z" fill="#2B7FC9"/>
<path d="M439.461 101.09C436.801 101.63 434.911 101.48 435.461 97.8602C437.801 97.7302 439.511 98.1202 439.461 101.09Z" fill="#2079C6"/>
<path d="M421.811 473.32H426.481L427.051 474.13L424.181 476.71C423.531 475.78 422.881 474.84 421.811 473.32Z" fill="#2079C6"/>
<path d="M296.42 36.6002L292 36.1102C292.25 35.5102 292.32 34.6702 292.77 34.3402C294.78 32.8502 295.64 34.4002 296.42 36.6002Z" fill="#287DC8"/>
<path d="M472.15 117.24H467.33L469.96 114.51L472.15 117.24Z" fill="#2079C6"/>
<path d="M355 25.7102C354.81 25.1702 354.59 24.8602 354.66 24.7102C354.728 24.5775 354.823 24.4603 354.938 24.3657C355.053 24.2711 355.186 24.2011 355.33 24.1602C355.45 24.1602 355.87 24.5602 355.83 24.6302C355.588 25.0159 355.31 25.3776 355 25.7102Z" fill="#227AC7"/>
<path d="M186.523 293.672C185.492 304.594 181.461 313.125 174.43 319.266C167.398 325.359 158.047 328.406 146.375 328.406C138.219 328.406 131.023 326.484 124.789 322.641C118.602 318.75 113.82 313.242 110.445 306.117C107.07 298.992 105.312 290.719 105.172 281.297V271.734C105.172 262.078 106.883 253.57 110.305 246.211C113.727 238.852 118.625 233.18 125 229.195C131.422 225.211 138.828 223.219 147.219 223.219C158.516 223.219 167.609 226.289 174.5 232.43C181.391 238.57 185.398 247.242 186.523 258.445H168.805C167.961 251.086 165.805 245.789 162.336 242.555C158.914 239.273 153.875 237.633 147.219 237.633C139.484 237.633 133.531 240.469 129.359 246.141C125.234 251.766 123.125 260.039 123.031 270.961V280.031C123.031 291.094 125 299.531 128.938 305.344C132.922 311.156 138.734 314.062 146.375 314.062C153.359 314.062 158.609 312.492 162.125 309.352C165.641 306.211 167.867 300.984 168.805 293.672H186.523ZM259.789 303.164H220.133L211.836 327H193.344L232.016 224.625H247.977L286.719 327H268.156L259.789 303.164ZM225.125 288.82H254.797L239.961 246.352L225.125 288.82ZM363.922 238.969H332V327H314.352V238.969H282.711V224.625H363.922V238.969ZM426.289 303.164H386.633L378.336 327H359.844L398.516 224.625H414.477L453.219 327H434.656L426.289 303.164ZM391.625 288.82H421.297L406.461 246.352L391.625 288.82ZM482.68 312.797H529.156V327H464.891V224.625H482.68V312.797ZM556.508 273.141L580.062 224.625H599.75L565.438 289.312V327H547.578V289.312L513.195 224.625H532.953L556.508 273.141ZM686.094 238.969H654.172V327H636.523V238.969H604.883V224.625H686.094V238.969ZM718.367 327H700.648V224.625H718.367V327ZM818.352 293.672C817.32 304.594 813.289 313.125 806.258 319.266C799.227 325.359 789.875 328.406 778.203 328.406C770.047 328.406 762.852 326.484 756.617 322.641C750.43 318.75 745.648 313.242 742.273 306.117C738.898 298.992 737.141 290.719 737 281.297V271.734C737 262.078 738.711 253.57 742.133 246.211C745.555 238.852 750.453 233.18 756.828 229.195C763.25 225.211 770.656 223.219 779.047 223.219C790.344 223.219 799.438 226.289 806.328 232.43C813.219 238.57 817.227 247.242 818.352 258.445H800.633C799.789 251.086 797.633 245.789 794.164 242.555C790.742 239.273 785.703 237.633 779.047 237.633C771.312 237.633 765.359 240.469 761.188 246.141C757.062 251.766 754.953 260.039 754.859 270.961V280.031C754.859 291.094 756.828 299.531 760.766 305.344C764.75 311.156 770.562 314.062 778.203 314.062C785.188 314.062 790.438 312.492 793.953 309.352C797.469 306.211 799.695 300.984 800.633 293.672H818.352ZM126.734 368.797H116.82V383H113.914V348.875H125C128.641 348.875 131.484 349.758 133.531 351.523C135.578 353.289 136.602 355.758 136.602 358.93C136.602 361.117 135.961 363.047 134.68 364.719C133.398 366.391 131.68 367.547 129.523 368.188L138.055 382.695V383H134.984L126.734 368.797ZM116.82 366.336H125.656C128.078 366.336 130.023 365.648 131.492 364.273C132.961 362.898 133.695 361.117 133.695 358.93C133.695 356.523 132.93 354.656 131.398 353.328C129.867 352 127.719 351.336 124.953 351.336H116.82V366.336ZM163.297 366.641H147.336V380.562H165.688V383H144.453V348.875H165.57V351.336H147.336V364.203H163.297V366.641ZM190.203 373.438H174.711L171.195 383H168.172L181.086 348.875H183.828L196.742 383H193.742L190.203 373.438ZM175.602 370.977H189.289L182.445 352.391L175.602 370.977ZM225.664 372.359C225.273 375.953 223.984 378.703 221.797 380.609C219.625 382.516 216.727 383.469 213.102 383.469C210.57 383.469 208.328 382.836 206.375 381.57C204.438 380.305 202.938 378.516 201.875 376.203C200.812 373.875 200.273 371.219 200.258 368.234V363.805C200.258 360.773 200.789 358.086 201.852 355.742C202.914 353.398 204.438 351.594 206.422 350.328C208.422 349.047 210.719 348.406 213.312 348.406C216.969 348.406 219.852 349.398 221.961 351.383C224.086 353.352 225.32 356.078 225.664 359.562H222.758C222.039 353.766 218.891 350.867 213.312 350.867C210.219 350.867 207.75 352.023 205.906 354.336C204.078 356.648 203.164 359.844 203.164 363.922V368.094C203.164 372.031 204.055 375.172 205.836 377.516C207.633 379.859 210.055 381.031 213.102 381.031C216.117 381.031 218.391 380.312 219.922 378.875C221.453 377.422 222.398 375.25 222.758 372.359H225.664ZM255.125 351.336H243.43V383H240.547V351.336H228.875V348.875H255.125V351.336ZM264.172 383H261.289V348.875H264.172V383ZM298.672 367.789C298.672 370.93 298.125 373.688 297.031 376.062C295.953 378.438 294.406 380.266 292.391 381.547C290.375 382.828 288.047 383.469 285.406 383.469C281.422 383.469 278.203 382.047 275.75 379.203C273.297 376.344 272.07 372.492 272.07 367.648V364.133C272.07 361.023 272.617 358.273 273.711 355.883C274.82 353.477 276.383 351.633 278.398 350.352C280.414 349.055 282.734 348.406 285.359 348.406C287.984 348.406 290.297 349.039 292.297 350.305C294.312 351.57 295.867 353.359 296.961 355.672C298.055 357.984 298.625 360.664 298.672 363.711V367.789ZM295.789 364.086C295.789 359.977 294.859 356.758 293 354.43C291.141 352.102 288.594 350.938 285.359 350.938C282.188 350.938 279.656 352.109 277.766 354.453C275.891 356.781 274.953 360.039 274.953 364.227V367.789C274.953 371.836 275.891 375.047 277.766 377.422C279.641 379.781 282.188 380.961 285.406 380.961C288.672 380.961 291.219 379.797 293.047 377.469C294.875 375.125 295.789 371.867 295.789 367.695V364.086ZM331.344 383H328.461L308.844 353.797V383H305.938V348.875H308.844L328.484 378.102V348.875H331.344V383ZM370.531 366.641H354.57V380.562H372.922V383H351.688V348.875H372.805V351.336H354.57V364.203H370.531V366.641ZM404.422 383H401.539L381.922 353.797V383H379.016V348.875H381.922L401.562 378.102V348.875H404.422V383ZM437.727 378.945C436.727 380.367 435.156 381.477 433.016 382.273C430.891 383.07 428.508 383.469 425.867 383.469C423.195 383.469 420.82 382.828 418.742 381.547C416.664 380.266 415.055 378.453 413.914 376.109C412.773 373.766 412.195 371.078 412.18 368.047V363.734C412.18 359 413.375 355.266 415.766 352.531C418.156 349.781 421.367 348.406 425.398 348.406C428.914 348.406 431.742 349.305 433.883 351.102C436.023 352.883 437.297 355.344 437.703 358.484H434.82C434.398 355.984 433.375 354.094 431.75 352.812C430.141 351.516 428.031 350.867 425.422 350.867C422.234 350.867 419.711 352 417.852 354.266C415.992 356.531 415.062 359.727 415.062 363.852V367.883C415.062 370.477 415.5 372.773 416.375 374.773C417.266 376.758 418.531 378.297 420.172 379.391C421.828 380.484 423.727 381.031 425.867 381.031C428.352 381.031 430.484 380.641 432.266 379.859C433.422 379.344 434.281 378.742 434.844 378.055V369.242H425.68V366.805H437.727V378.945ZM449.422 383H446.539V348.875H449.422V383ZM484.109 383H481.227L461.609 353.797V383H458.703V348.875H461.609L481.25 378.102V348.875H484.109V383ZM511.625 366.641H495.664V380.562H514.016V383H492.781V348.875H513.898V351.336H495.664V364.203H511.625V366.641ZM538.953 366.641H522.992V380.562H541.344V383H520.109V348.875H541.227V351.336H522.992V364.203H538.953V366.641ZM560.188 368.797H550.273V383H547.367V348.875H558.453C562.094 348.875 564.938 349.758 566.984 351.523C569.031 353.289 570.055 355.758 570.055 358.93C570.055 361.117 569.414 363.047 568.133 364.719C566.852 366.391 565.133 367.547 562.977 368.188L571.508 382.695V383H568.438L560.188 368.797ZM550.273 366.336H559.109C561.531 366.336 563.477 365.648 564.945 364.273C566.414 362.898 567.148 361.117 567.148 358.93C567.148 356.523 566.383 354.656 564.852 353.328C563.32 352 561.172 351.336 558.406 351.336H550.273V366.336ZM581.422 383H578.539V348.875H581.422V383ZM616.109 383H613.227L593.609 353.797V383H590.703V348.875H593.609L613.25 378.102V348.875H616.109V383ZM649.414 378.945C648.414 380.367 646.844 381.477 644.703 382.273C642.578 383.07 640.195 383.469 637.555 383.469C634.883 383.469 632.508 382.828 630.43 381.547C628.352 380.266 626.742 378.453 625.602 376.109C624.461 373.766 623.883 371.078 623.867 368.047V363.734C623.867 359 625.062 355.266 627.453 352.531C629.844 349.781 633.055 348.406 637.086 348.406C640.602 348.406 643.43 349.305 645.57 351.102C647.711 352.883 648.984 355.344 649.391 358.484H646.508C646.086 355.984 645.062 354.094 643.438 352.812C641.828 351.516 639.719 350.867 637.109 350.867C633.922 350.867 631.398 352 629.539 354.266C627.68 356.531 626.75 359.727 626.75 363.852V367.883C626.75 370.477 627.188 372.773 628.062 374.773C628.953 376.758 630.219 378.297 631.859 379.391C633.516 380.484 635.414 381.031 637.555 381.031C640.039 381.031 642.172 380.641 643.953 379.859C645.109 379.344 645.969 378.742 646.531 378.055V369.242H637.367V366.805H649.414V378.945ZM693.898 378.945C692.898 380.367 691.328 381.477 689.188 382.273C687.062 383.07 684.68 383.469 682.039 383.469C679.367 383.469 676.992 382.828 674.914 381.547C672.836 380.266 671.227 378.453 670.086 376.109C668.945 373.766 668.367 371.078 668.352 368.047V363.734C668.352 359 669.547 355.266 671.938 352.531C674.328 349.781 677.539 348.406 681.57 348.406C685.086 348.406 687.914 349.305 690.055 351.102C692.195 352.883 693.469 355.344 693.875 358.484H690.992C690.57 355.984 689.547 354.094 687.922 352.812C686.312 351.516 684.203 350.867 681.594 350.867C678.406 350.867 675.883 352 674.023 354.266C672.164 356.531 671.234 359.727 671.234 363.852V367.883C671.234 370.477 671.672 372.773 672.547 374.773C673.438 376.758 674.703 378.297 676.344 379.391C678 380.484 679.898 381.031 682.039 381.031C684.523 381.031 686.656 380.641 688.438 379.859C689.594 379.344 690.453 378.742 691.016 378.055V369.242H681.852V366.805H693.898V378.945ZM714.828 368.797H704.914V383H702.008V348.875H713.094C716.734 348.875 719.578 349.758 721.625 351.523C723.672 353.289 724.695 355.758 724.695 358.93C724.695 361.117 724.055 363.047 722.773 364.719C721.492 366.391 719.773 367.547 717.617 368.188L726.148 382.695V383H723.078L714.828 368.797ZM704.914 366.336H713.75C716.172 366.336 718.117 365.648 719.586 364.273C721.055 362.898 721.789 361.117 721.789 358.93C721.789 356.523 721.023 354.656 719.492 353.328C717.961 352 715.812 351.336 713.047 351.336H704.914V366.336ZM757.766 367.789C757.766 370.93 757.219 373.688 756.125 376.062C755.047 378.438 753.5 380.266 751.484 381.547C749.469 382.828 747.141 383.469 744.5 383.469C740.516 383.469 737.297 382.047 734.844 379.203C732.391 376.344 731.164 372.492 731.164 367.648V364.133C731.164 361.023 731.711 358.273 732.805 355.883C733.914 353.477 735.477 351.633 737.492 350.352C739.508 349.055 741.828 348.406 744.453 348.406C747.078 348.406 749.391 349.039 751.391 350.305C753.406 351.57 754.961 353.359 756.055 355.672C757.148 357.984 757.719 360.664 757.766 363.711V367.789ZM754.883 364.086C754.883 359.977 753.953 356.758 752.094 354.43C750.234 352.102 747.688 350.938 744.453 350.938C741.281 350.938 738.75 352.109 736.859 354.453C734.984 356.781 734.047 360.039 734.047 364.227V367.789C734.047 371.836 734.984 375.047 736.859 377.422C738.734 379.781 741.281 380.961 744.5 380.961C747.766 380.961 750.312 379.797 752.141 377.469C753.969 375.125 754.883 371.867 754.883 367.695V364.086ZM788.539 348.875V372.172C788.523 374.469 788.016 376.469 787.016 378.172C786.016 379.875 784.602 381.188 782.773 382.109C780.961 383.016 778.875 383.469 776.516 383.469C772.922 383.469 770.039 382.492 767.867 380.539C765.711 378.57 764.594 375.852 764.516 372.383V348.875H767.375V371.961C767.375 374.836 768.195 377.07 769.836 378.664C771.477 380.242 773.703 381.031 776.516 381.031C779.328 381.031 781.547 380.234 783.172 378.641C784.812 377.047 785.633 374.828 785.633 371.984V348.875H788.539ZM799.461 369.102V383H796.578V348.875H808.203C811.75 348.875 814.547 349.781 816.594 351.594C818.656 353.406 819.688 355.898 819.688 359.07C819.688 362.273 818.695 364.75 816.711 366.5C814.742 368.234 811.883 369.102 808.133 369.102H799.461ZM799.461 366.664H808.203C811 366.664 813.133 366 814.602 364.672C816.07 363.344 816.805 361.492 816.805 359.117C816.805 356.758 816.07 354.883 814.602 353.492C813.148 352.086 811.078 351.367 808.391 351.336H799.461V366.664Z" fill="#34363C"/>
</g>
<defs>
<clipPath id="clip0">
<rect width="910.35" height="570.97" fill="white"/>
</clipPath>
</defs>
</svg>
