<svg xmlns="http://www.w3.org/2000/svg" version="1.0" width="500.000000" height="500.000000" preserveAspectRatio="xMidYMid meet"><rect id="backgroundrect" width="100%" height="100%" x="0" y="0" fill="none" stroke="none"/>


<g class="currentLayer" style=""><title>Layer 1</title><g transform="translate(0,500) scale(0.10000000149011612,-0.10000000149011612) " fill="#2179c6" stroke="none" id="svg_1" class="selected" fill-opacity="1">
<path d="M1177 4083 c-71 -11 -197 -118 -239 -202 l-23 -46 0 -1310 0 -1310 29 -3 c16 -2 34 2 40 8 8 8 12 363 16 1303 5 1275 5 1292 25 1328 24 41 77 97 119 123 20 12 56 20 113 24 78 4 89 3 141 -23 59 -29 120 -94 143 -151 18 -46 16 -154 -4 -194 -28 -56 -43 -79 -67 -105 -35 -37 -118 -75 -164 -75 -23 0 -49 -7 -58 -14 -17 -12 -18 -82 -18 -1217 l0 -1204 26 -39 c47 -69 -2 -66 975 -66 877 0 881 0 919 21 71 40 70 34 70 592 0 274 -2 497 -5 497 -3 0 -24 -18 -45 -39 l-40 -39 0 -446 c0 -265 -4 -455 -10 -470 l-10 -26 -884 0 c-866 0 -886 0 -896 19 -7 14 -9 390 -8 1175 l3 1156 900 1 900 0 5 -167 5 -168 43 48 42 49 0 117 c0 126 2 132 55 144 96 22 184 97 233 196 24 50 27 66 27 168 0 68 -4 116 -11 120 -5 4 -16 21 -22 37 -21 52 -104 132 -168 162 l-59 28 -1035 1 c-569 1 -1047 -1 -1063 -3z m2143 -117 c25 -16 51 -37 58 -47 7 -10 18 -24 25 -31 7 -7 21 -35 31 -62 26 -69 23 -164 -8 -225 -34 -65 -109 -130 -167 -144 -29 -7 -1708 -11 -1715 -4 -3 2 11 29 31 58 55 83 75 163 64 252 -9 74 -45 164 -83 205 -14 16 -17 25 -9 30 6 4 397 5 870 2 l858 -5 45 -29z" id="svg_2" fill="#2179c6" fill-opacity="1"/>
<path d="M3712 3425 c-43 -19 -1372 -1348 -1429 -1430 -24 -33 -60 -86 -80 -119 -21 -32 -43 -64 -49 -70 -6 -6 -17 -23 -24 -36 -7 -14 -19 -32 -27 -40 -14 -15 -68 -92 -103 -145 -42 -64 -121 -178 -129 -185 -3 -3 -10 -12 -16 -21 -5 -9 -28 -42 -49 -75 -32 -47 -40 -68 -40 -107 -1 -40 3 -51 24 -67 14 -11 40 -20 58 -20 32 0 95 33 121 64 7 9 19 16 25 16 6 0 38 20 71 45 33 25 62 45 65 45 4 0 45 28 92 63 48 34 96 69 108 77 12 8 33 23 45 32 13 10 28 18 34 18 6 0 11 4 11 9 0 5 8 12 19 16 10 3 29 14 41 25 12 11 46 34 74 52 28 18 58 39 66 46 8 8 37 28 64 45 27 17 51 39 54 49 2 10 10 18 17 18 14 0 115 104 115 119 0 6 5 11 11 11 11 0 649 635 649 646 0 3 7 12 15 20 8 9 15 12 15 8 0 -5 18 12 40 36 22 24 40 48 40 53 0 4 5 5 10 2 6 -3 10 1 10 9 0 9 4 16 10 16 12 0 120 106 120 117 0 5 10 15 21 23 37 25 109 98 109 109 0 6 5 11 10 11 11 0 91 79 127 125 43 55 42 163 -2 220 -47 62 -141 152 -177 168 -44 21 -121 21 -166 2z m126 -79 c32 -16 140 -125 158 -158 12 -23 11 -67 -3 -92 -12 -22 -51 -61 -685 -692 l-593 -592 -122 122 c-68 68 -123 127 -123 132 0 15 1236 1252 1273 1274 38 24 59 25 95 6z m-1383 -1396 c17 -21 40 -44 53 -51 12 -7 22 -16 22 -20 0 -4 27 -35 60 -68 33 -34 60 -63 60 -65 0 -2 -17 -15 -37 -27 -21 -13 -42 -27 -48 -32 -5 -4 -35 -26 -65 -48 -30 -21 -59 -43 -65 -47 -5 -4 -17 -11 -25 -15 -14 -5 -98 -63 -328 -224 -46 -32 -94 -65 -106 -73 -13 -8 -42 -28 -65 -44 -23 -16 -44 -26 -47 -23 -7 7 57 107 68 107 5 0 8 9 8 19 0 11 4 21 8 23 9 3 142 194 142 203 0 3 8 14 18 24 26 29 35 41 67 93 17 27 33 48 38 48 4 0 7 4 7 10 0 5 21 40 47 77 25 38 58 85 72 106 13 20 28 37 33 37 4 0 8 7 8 15 0 30 44 15 75 -25z" id="svg_3" fill="#2179c6" fill-opacity="1"/>
<path d="M1619 2982 c-23 -40 -7 -70 40 -74 20 -2 291 -2 603 0 l568 2 6 24 c3 15 -1 34 -11 50 l-17 26 -587 0 -586 0 -16 -28z" id="svg_4" fill="#2179c6" fill-opacity="1"/>
<path d="M1656 2740 c-41 -5 -62 -33 -46 -60 15 -25 106 -29 627 -29 l523 -1 40 37 c30 26 38 39 30 47 -11 11 -1091 17 -1174 6z" id="svg_5" fill="#2179c6" fill-opacity="1"/>
<path d="M1632 2486 c-9 -5 -20 -14 -23 -19 -12 -17 3 -48 28 -58 13 -5 213 -8 453 -6 l430 2 45 45 45 46 -480 -1 c-271 0 -489 -4 -498 -9z" id="svg_6" fill="#2179c6" fill-opacity="1"/>
<path d="M1622 2238 c-17 -17 -15 -65 4 -72 9 -3 159 -6 335 -6 l319 0 16 25 c9 14 23 25 31 25 10 0 13 6 9 16 -3 8 -2 12 4 9 6 -3 10 -1 10 4 0 16 -712 15 -728 -1z" id="svg_7" fill="#2179c6" fill-opacity="1"/>
<path d="M1611 1968 c-6 -15 -5 -30 4 -43 12 -19 25 -20 240 -23 250 -3 234 -6 270 61 l16 27 -261 0 -261 0 -8 -22z" id="svg_8" fill="#2179c6" fill-opacity="1"/>
</g></g></svg>