<svg width="414" height="585" viewBox="0 0 414 585" fill="none" xmlns="http://www.w3.org/2000/svg">
<mask id="path-1-inside-1" fill="white">
<path d="M414 207C414 234.184 408.646 261.101 398.243 286.215C387.84 311.33 372.593 334.149 353.371 353.371C334.149 372.593 311.33 387.84 286.215 398.243C261.101 408.646 234.184 414 207 414C179.816 414 152.899 408.646 127.785 398.243C102.67 387.84 79.8506 372.593 60.6289 353.371C41.4072 334.149 26.1597 311.33 15.7569 286.215C5.35421 261.101 -2.37647e-06 234.184 0 207L207 207H414Z"/>
</mask>
<path d="M414 207C414 234.184 408.646 261.101 398.243 286.215C387.84 311.33 372.593 334.149 353.371 353.371C334.149 372.593 311.33 387.84 286.215 398.243C261.101 408.646 234.184 414 207 414C179.816 414 152.899 408.646 127.785 398.243C102.67 387.84 79.8506 372.593 60.6289 353.371C41.4072 334.149 26.1597 311.33 15.7569 286.215C5.35421 261.101 -2.37647e-06 234.184 0 207L207 207H414Z" stroke="#2179C6" stroke-width="30" mask="url(#path-1-inside-1)"/>
<path d="M115.5 184.5H298.5V365C298.5 415.534 257.534 456.5 207 456.5C156.466 456.5 115.5 415.534 115.5 365V184.5Z" fill="white" stroke="#227AC7" stroke-width="15"/>
<line x1="108" y1="577.5" x2="306" y2="577.5" stroke="#2179C6" stroke-width="15"/>
<line x1="208.5" y1="452" x2="208.5" y2="575" stroke="#227AC7" stroke-width="15"/>
</svg>
