<svg width="518" height="479" viewBox="0 0 518 479" fill="none" xmlns="http://www.w3.org/2000/svg">
<path d="M346.5 239.5C346.5 304.977 336.569 363.923 320.761 406.227C312.846 427.407 303.602 444.025 293.717 455.213C283.823 466.411 273.932 471.5 264.5 471.5C255.068 471.5 245.177 466.411 235.283 455.213C225.398 444.025 216.154 427.407 208.239 406.227C192.431 363.923 182.5 304.977 182.5 239.5C182.5 174.023 192.431 115.077 208.239 72.7733C216.154 51.5932 225.398 34.9749 235.283 23.7869C245.177 12.5886 255.068 7.5 264.5 7.5C273.932 7.5 283.823 12.5886 293.717 23.7869C303.602 34.9749 312.846 51.5932 320.761 72.7733C336.569 115.077 346.5 174.023 346.5 239.5Z" stroke="#267CC8" stroke-width="15"/>
<path d="M306.163 311.273C249.458 344.012 193.445 364.884 148.904 372.346C126.604 376.081 107.59 376.385 92.9585 373.418C78.3136 370.449 68.9611 364.427 64.2452 356.259C59.5293 348.091 58.9906 336.981 63.7416 322.813C68.4883 308.659 78.2582 292.344 92.6433 274.9C121.375 240.057 167.458 201.984 224.163 169.245C280.868 136.507 336.881 115.634 381.422 108.173C403.722 104.437 422.736 104.134 437.368 107.1C452.013 110.069 461.365 116.091 466.081 124.259C470.797 132.427 471.336 143.538 466.585 157.705C461.838 171.86 452.068 188.174 437.683 205.619C408.951 240.462 362.868 278.535 306.163 311.273Z" stroke="#267CC8" stroke-width="15"/>
<path d="M293.163 169.244C349.868 201.983 395.951 240.056 424.683 274.899C439.068 292.343 448.838 308.658 453.585 322.812C458.336 336.98 457.797 348.09 453.081 356.258C448.365 364.427 439.013 370.448 424.368 373.417C409.736 376.384 390.722 376.08 368.422 372.345C323.881 364.884 267.868 344.011 211.163 311.272C154.458 278.534 108.375 240.461 79.6432 205.618C65.2582 188.173 55.4883 171.859 50.7416 157.704C45.9906 143.537 46.5293 132.427 51.2452 124.258C55.9611 116.09 65.3136 110.068 79.9585 107.099C94.5899 104.133 113.604 104.436 135.904 108.172C180.445 115.633 236.458 136.506 293.163 169.244Z" stroke="#267CC8" stroke-width="15"/>
</svg>
